<svg version="1.1" xmlns="http://www.w3.org/2000/svg" viewBox="0 0 760.3245635414519 497.87340764757846" width="760.3245635414519" height="497.87340764757846">
  <!-- svg-source:excalidraw -->
  
  <defs>
    <style class="style-fonts">
      @font-face {
        font-family: "Virgil";
        src: url("https://excalidraw.com/Virgil.woff2");
      }
      @font-face {
        font-family: "Cascadia";
        src: url("https://excalidraw.com/Cascadia.woff2");
      }
      @font-face {
        font-family: "Assistant";
        src: url("https://excalidraw.com/Assistant-Regular.woff2");
      }
    </style>
    
  </defs>
  <rect x="0" y="0" width="760.3245635414519" height="497.87340764757846" fill="#ffffff"></rect><g stroke-linecap="round" transform="translate(10 10) rotate(0 370.16228177072594 238.93670382378923)"><path d="M0 0 C212.1 2.58, 424.54 3.25, 740.32 0 M0 0 C168.25 1.06, 336.16 0.71, 740.32 0 M740.32 0 C740.18 153.51, 739.99 305.27, 740.32 477.87 M740.32 0 C738.2 135.55, 737.96 271.66, 740.32 477.87 M740.32 477.87 C553.52 480.14, 366.09 480.96, 0 477.87 M740.32 477.87 C462.41 479.28, 184.69 479.59, 0 477.87 M0 477.87 C-1.27 314.2, -1.09 149.87, 0 0 M0 477.87 C1.72 327.67, 1.73 177.46, 0 0" stroke="#6741d9" stroke-width="2" fill="none"></path></g><g stroke-linecap="round" transform="translate(33.84248348849877 308.333406946741) rotate(0 345.79615500341185 62.85962595332967)"><path d="M0 0 C229.11 0.22, 456.86 -1.11, 691.59 0 M0 0 C205.58 -0.01, 411.48 -0.08, 691.59 0 M691.59 0 C689.07 30.45, 688.94 57.81, 691.59 125.72 M691.59 0 C691.49 26.61, 691.99 51.45, 691.59 125.72 M691.59 125.72 C532.84 123.95, 375.05 124.75, 0 125.72 M691.59 125.72 C458.72 123.45, 225.41 123.27, 0 125.72 M0 125.72 C-0.89 80.25, -0.91 29.43, 0 0 M0 125.72 C-0.71 77.54, -1.62 27.31, 0 0" stroke="#e03131" stroke-width="2" fill="none"></path></g><g transform="translate(320.0323385027485 449.1600643185852) rotate(0 60.12994384765625 12.5)"><text x="0" y="17.52" font-family="Virgil, Segoe UI Emoji" font-size="20px" fill="#6741d9" text-anchor="start" style="white-space: pre;" direction="ltr" dominant-baseline="alphabetic">Docker Host</text></g><g transform="translate(293.460210360423 385.1056403148641) rotate(0 93.07992553710938 12.5)"><text x="0" y="17.52" font-family="Virgil, Segoe UI Emoji" font-size="20px" fill="#1e1e1e" text-anchor="start" style="white-space: pre;" direction="ltr" dominant-baseline="alphabetic">mysql - image layer</text></g><g transform="translate(320.03233796908825 321.05121471388384) rotate(0 48.85997009277344 12.5)"><text x="0" y="17.52" font-family="Virgil, Segoe UI Emoji" font-size="20px" fill="#e03131" text-anchor="start" style="white-space: pre;" direction="ltr" dominant-baseline="alphabetic">Read Only</text></g><g stroke-linecap="round" transform="translate(421.5988829199295 42.849081157902674) rotate(0 148.8133086965796 92.7387059533653)"><path d="M0 0 C76.39 -2.12, 152.68 -0.1, 297.63 0 M0 0 C73.51 1.15, 145.74 0.96, 297.63 0 M297.63 0 C298.92 61.91, 299.04 121.11, 297.63 185.48 M297.63 0 C297.88 66.4, 296.79 131.38, 297.63 185.48 M297.63 185.48 C205.45 186.09, 116.85 187.8, 0 185.48 M297.63 185.48 C181.62 186.39, 65.85 186.66, 0 185.48 M0 185.48 C1.19 144.69, 3.17 101.87, 0 0 M0 185.48 C-0.08 138.38, 0.55 91.53, 0 0" stroke="#2f9e44" stroke-width="2" fill="none"></path></g><g stroke-linecap="round" transform="translate(33.174523963682645 47.80956482023066) rotate(0 152.26406563174 92.7387059533653)"><path d="M0 0 C112.17 0.5, 225.2 0.67, 304.53 0 M0 0 C79.15 -0.1, 158.86 -0.04, 304.53 0 M304.53 0 C306.58 62.19, 303.02 126.89, 304.53 185.48 M304.53 0 C305.27 43.03, 305.3 83.64, 304.53 185.48 M304.53 185.48 C243.03 186.2, 181.54 187.63, 0 185.48 M304.53 185.48 C198.53 184.1, 92.16 183.94, 0 185.48 M0 185.48 C-1.37 125.2, -3.2 61.57, 0 0 M0 185.48 C-1.1 131.68, -0.96 77.9, 0 0" stroke="#2f9e44" stroke-width="2" fill="none"></path></g><g transform="translate(141.4457099928257 70.51571611427971) rotate(0 53.789955139160156 12.5)"><text x="0" y="17.52" font-family="Virgil, Segoe UI Emoji" font-size="20px" fill="#2f9e44" text-anchor="start" style="white-space: pre;" direction="ltr" dominant-baseline="alphabetic">Read-Write</text></g><g transform="translate(536.6424878946766 78.30284474288783) rotate(0 53.789955139160156 12.5)"><text x="0" y="17.52" font-family="Virgil, Segoe UI Emoji" font-size="20px" fill="#2f9e44" text-anchor="start" style="white-space: pre;" direction="ltr" dominant-baseline="alphabetic">Read-Write</text></g><g stroke-linecap="round" transform="translate(131.55455682763426 238.1574900468795) rotate(0 103.3144001899825 30.87392110428368)"><path d="M0 0 C65.37 2.93, 131.5 0, 206.63 0 M0 0 C74.59 0.97, 148.88 0.37, 206.63 0 M206.63 0 C205.95 24.29, 207.16 48.2, 206.63 61.75 M206.63 0 C206.76 22.46, 206.92 46.39, 206.63 61.75 M206.63 61.75 C137.82 64.22, 73.12 62.22, 0 61.75 M206.63 61.75 C141.75 61.47, 78.94 61.83, 0 61.75 M0 61.75 C-1.2 46.96, 0.52 37.29, 0 0 M0 61.75 C-0.13 40.56, 0.24 20.98, 0 0" stroke="#1971c2" stroke-width="2" fill="none"></path></g><g transform="translate(182.84048985776639 241.9914579416536) rotate(0 51.05596923828125 10)"><text x="0" y="14.016" font-family="Virgil, Segoe UI Emoji" font-size="16px" fill="#1971c2" text-anchor="start" style="white-space: pre;" direction="ltr" dominant-baseline="alphabetic">data_volume</text></g><g transform="translate(146.54295625742935 270.34587000511056) rotate(0 90.63994598388672 10)"><text x="0" y="14.016" font-family="Virgil, Segoe UI Emoji" font-size="16px" fill="#1e1e1e" text-anchor="start" style="white-space: pre;" direction="ltr" dominant-baseline="alphabetic">/var/lib/docker/volumes</text></g><g stroke-linecap="round" transform="translate(511.245387353559 235.59004352455622) rotate(0 103.31440018998256 30.87392110428368)"><path d="M0 0 C45.49 0.79, 94.31 1.68, 206.63 0 M0 0 C72.87 1.21, 144.98 1.37, 206.63 0 M206.63 0 C205.99 22.08, 205.99 44.64, 206.63 61.75 M206.63 0 C206.77 21.38, 207.08 42.02, 206.63 61.75 M206.63 61.75 C151.21 61.47, 94.08 61.8, 0 61.75 M206.63 61.75 C132.06 61.29, 56.08 62.37, 0 61.75 M0 61.75 C0.13 46.79, -0.6 28.56, 0 0 M0 61.75 C-0.04 37.06, -0.5 13.66, 0 0" stroke="#1971c2" stroke-width="2" fill="none"></path></g><g transform="translate(596.0823552324659 239.42401141932987) rotate(0 19.631980895996094 10)"><text x="0" y="14.016" font-family="Virgil, Segoe UI Emoji" font-size="16px" fill="#1971c2" text-anchor="start" style="white-space: pre;" direction="ltr" dominant-baseline="alphabetic">mysql</text></g><g transform="translate(594.2854996649503 271.894360841653) rotate(0 23.743988037109375 10)"><text x="0" y="14.016" font-family="Virgil, Segoe UI Emoji" font-size="16px" fill="#1e1e1e" text-anchor="start" style="white-space: pre;" direction="ltr" dominant-baseline="alphabetic">/data</text></g><g stroke-linecap="round"><g transform="translate(575.6780069394545 252.89804550710414) rotate(0 -2.171006469881604 -57.89293074904958)"><path d="M0 0 C0.02 -27.36, -3.27 -56.04, -4.34 -115.79" stroke="#e03131" stroke-width="2.5" fill="none" stroke-dasharray="8 10"></path></g></g><mask></mask><g stroke-linecap="round" transform="translate(512.7076559510431 108.40924176910903) rotate(0 103.31440018998256 30.87392110428368)"><path d="M0 0 C48.84 1.85, 96.38 0.01, 206.63 0 M0 0 C49.08 0.54, 98.76 1.93, 206.63 0 M206.63 0 C208.7 17.68, 206.08 33.93, 206.63 61.75 M206.63 0 C206.04 13.95, 206.01 27.54, 206.63 61.75 M206.63 61.75 C148.52 62.67, 88.39 61.89, 0 61.75 M206.63 61.75 C143.98 61.82, 83.69 61.45, 0 61.75 M0 61.75 C0.35 36.53, 0.11 13.51, 0 0 M0 61.75 C0.64 40.43, 0.88 18.3, 0 0" stroke="#2f9e44" stroke-width="2" fill="none"></path></g><g transform="translate(584.8929015459905 128.06932337974786) rotate(0 52.51196289062494 10)"><text x="0" y="14.016" font-family="Virgil, Segoe UI Emoji" font-size="16px" fill="#1e1e1e" text-anchor="start" style="white-space: pre;" direction="ltr" dominant-baseline="alphabetic">/var/lib/mysql</text></g><g stroke-linecap="round"><g transform="translate(169.5230390935447 255.3091466756673) rotate(0 -0.0000138027469915869 -62.5967688986284)"><path d="M0 0 C-2 -26.44, -1.02 -55.28, 0 -125.19" stroke="#e03131" stroke-width="2.5" fill="none" stroke-dasharray="8 10"></path></g></g><mask></mask><g stroke-linecap="round" transform="translate(130.4335108243843 99.24168777412751) rotate(0 103.3144001899825 30.87392110428368)"><path d="M0 0 C70.36 -1.45, 140.22 -2.1, 206.63 0 M0 0 C51.4 0.66, 105.09 1.6, 206.63 0 M206.63 0 C207.82 13.94, 204.54 23.82, 206.63 61.75 M206.63 0 C206.7 22.27, 206.6 44.4, 206.63 61.75 M206.63 61.75 C159.33 61.68, 113.55 63.17, 0 61.75 M206.63 61.75 C153.18 60.64, 99.45 60.45, 0 61.75 M0 61.75 C-1.73 47.66, -0.96 37.04, 0 0 M0 61.75 C-1.17 44.36, -0.15 26.13, 0 0" stroke="#2f9e44" stroke-width="2" fill="none"></path></g><g transform="translate(185.23594812374182 120.11560887841097) rotate(0 48.511962890625 10)"><text x="48.511962890625" y="14.016" font-family="Virgil, Segoe UI Emoji" font-size="16px" fill="#1e1e1e" text-anchor="middle" style="white-space: pre;" direction="ltr" dominant-baseline="alphabetic">var/lib/mysql</text></g><g transform="translate(102.31396112692477 197.70198061151495) rotate(0 111.58991241455078 12.5)"><text x="0" y="17.52" font-family="Virgil, Segoe UI Emoji" font-size="20px" fill="#1e1e1e" text-anchor="start" style="white-space: pre;" direction="ltr" dominant-baseline="alphabetic">mysql - container layer</text></g><g transform="translate(526.1072078463806 196.63332820222513) rotate(0 89.2719497680664 10)"><text x="0" y="14.016" font-family="Virgil, Segoe UI Emoji" font-size="16px" fill="#1e1e1e" text-anchor="start" style="white-space: pre;" direction="ltr" dominant-baseline="alphabetic">mysql - container layer</text></g></svg>