<svg version="1.1" xmlns="http://www.w3.org/2000/svg" viewBox="0 0 919.1264015738735 708.3294030262891" width="919.1264015738735" height="708.3294030262891">
  <!-- svg-source:excalidraw -->
  
  <defs>
    <style class="style-fonts">
      @font-face {
        font-family: "Virgil";
        src: url("https://excalidraw.com/Virgil.woff2");
      }
      @font-face {
        font-family: "Cascadia";
        src: url("https://excalidraw.com/Cascadia.woff2");
      }
      @font-face {
        font-family: "Assistant";
        src: url("https://excalidraw.com/Assistant-Regular.woff2");
      }
    </style>
    
  </defs>
  <rect x="0" y="0" width="919.1264015738735" height="708.3294030262891" fill="#ffffff"></rect><g stroke-linecap="round" transform="translate(184.45602673699378 303.4455730439581) rotate(0 361.0599253617486 171.89204234223757)"><path d="M0 0 C284.72 -1.83, 570.23 -0.79, 722.12 0 M0 0 C169.45 -2.93, 338.96 -2.77, 722.12 0 M722.12 0 C719.88 132.89, 719.11 266.78, 722.12 343.78 M722.12 0 C723 76.91, 722.66 153.25, 722.12 343.78 M722.12 343.78 C506.06 345.12, 290.81 345.08, 0 343.78 M722.12 343.78 C549.22 342.76, 376.75 342.59, 0 343.78 M0 343.78 C-1.2 228.7, -1.83 114.36, 0 0 M0 343.78 C0.2 274.74, 0.12 206.09, 0 0" stroke="#e03131" stroke-width="2" fill="none"></path></g><g transform="translate(537.2959585074337 462.8376153861959) rotate(0 8.219993591308594 12.5)"><text x="8.219993591308594" y="17.52" font-family="Virgil, Segoe UI Emoji" font-size="20px" fill="#9c36b5" text-anchor="middle" style="white-space: pre;" direction="ltr" dominant-baseline="alphabetic">...</text></g><g stroke-linecap="round" transform="translate(187.00655085037639 94.02693232585307) rotate(0 361.0599253617486 64.10145365561505)"><path d="M0 0 C250.55 -1.86, 500.71 -1.17, 722.12 0 M0 0 C162.37 2.37, 324.18 2.13, 722.12 0 M722.12 0 C720.75 28.46, 722.91 54.51, 722.12 128.2 M722.12 0 C723.27 45.14, 722.87 89.31, 722.12 128.2 M722.12 128.2 C539.81 127, 358.72 126.65, 0 128.2 M722.12 128.2 C568.06 126.5, 414.24 126.19, 0 128.2 M0 128.2 C1.14 88.3, 0.23 51.13, 0 0 M0 128.2 C0.42 80.86, 0.84 32.62, 0 0" stroke="#2f9e44" stroke-width="2" fill="none"></path></g><g transform="translate(512.6853869712288 330.2399519687933) rotate(0 48.85997009277344 12.5)"><text x="0" y="17.52" font-family="Virgil, Segoe UI Emoji" font-size="20px" fill="#e03131" text-anchor="start" style="white-space: pre;" direction="ltr" dominant-baseline="alphabetic">Read Only</text></g><g transform="translate(503.1489283683925 116.73278821675581) rotate(0 54.679962158203125 12.5)"><text x="0" y="17.52" font-family="Virgil, Segoe UI Emoji" font-size="20px" fill="#2f9e44" text-anchor="start" style="white-space: pre;" direction="ltr" dominant-baseline="alphabetic">Read Write</text></g><g transform="translate(31.62346013250874 466.09767136916525) rotate(0 66.47994995117189 12.5)"><text x="0" y="17.52" font-family="Virgil, Segoe UI Emoji" font-size="20px" fill="#1e1e1e" text-anchor="start" style="white-space: pre;" direction="ltr" dominant-baseline="alphabetic">Image Layers</text></g><g transform="translate(10 143.32415100683602) rotate(0 76.47993469238283 12.5)"><text x="0" y="17.52" font-family="Virgil, Segoe UI Emoji" font-size="20px" fill="#1e1e1e" text-anchor="start" style="white-space: pre;" direction="ltr" dominant-baseline="alphabetic">Container Lyers</text></g><g stroke-linecap="round" transform="translate(215.82907499193576 580.1988212140177) rotate(0 335.0511674663535 24.173966172799965)"><path d="M0 0 C225.15 0.09, 451.05 0.84, 670.1 0 M0 0 C234.68 0.08, 468.43 0.13, 670.1 0 M670.1 0 C671.71 14.42, 669.5 33.28, 670.1 48.35 M670.1 0 C670 13.06, 669.13 25.85, 670.1 48.35 M670.1 48.35 C525.98 46.59, 380.81 47.48, 0 48.35 M670.1 48.35 C519.18 46.36, 368.05 46.23, 0 48.35 M0 48.35 C1.46 33.99, -0.87 22.94, 0 0 M0 48.35 C-0.05 38.07, -1.01 28.26, 0 0" stroke="#9c36b5" stroke-width="2" fill="none"></path></g><g transform="translate(453.12030898660953 591.8727873868179) rotate(0 97.75993347167969 12.5)"><text x="97.75993347167969" y="17.52" font-family="Virgil, Segoe UI Emoji" font-size="20px" fill="#9c36b5" text-anchor="middle" style="white-space: pre;" direction="ltr" dominant-baseline="alphabetic">Layer 1: Base image</text></g><g stroke-linecap="round" transform="translate(216.79611110059253 519.2803969493266) rotate(0 335.05116746635355 24.173966172799965)"><path d="M0 0 C193.5 -1.03, 386.65 -0.89, 670.1 0 M0 0 C241.52 -1.59, 483.12 -1.63, 670.1 0 M670.1 0 C668.88 17.73, 671.69 34.68, 670.1 48.35 M670.1 0 C669.68 17.79, 669.35 34.9, 670.1 48.35 M670.1 48.35 C427.9 46.65, 185.73 46.88, 0 48.35 M670.1 48.35 C532.79 46.41, 395.92 46.02, 0 48.35 M0 48.35 C-1.43 31.92, 0.65 15.96, 0 0 M0 48.35 C-1.1 29.39, 0.54 12.06, 0 0" stroke="#9c36b5" stroke-width="2" fill="none"></path></g><g transform="translate(439.5573615747585 530.9543631221268) rotate(0 112.2899169921875 12.5)"><text x="112.2899169921875" y="17.52" font-family="Virgil, Segoe UI Emoji" font-size="20px" fill="#9c36b5" text-anchor="middle" style="white-space: pre;" direction="ltr" dominant-baseline="alphabetic">Layer 2: Some changes</text></g><g stroke-linecap="round" transform="translate(212.4447160390893 365.7757117520455) rotate(0 335.0511674663535 24.173966172799965)"><path d="M0 0 C178.06 1.32, 357.17 0.56, 670.1 0 M0 0 C220.25 -2.46, 440.83 -2.4, 670.1 0 M670.1 0 C670.64 13.3, 671.02 24.93, 670.1 48.35 M670.1 0 C669.38 18.83, 670.77 38.67, 670.1 48.35 M670.1 48.35 C468.42 49.8, 266.23 49.5, 0 48.35 M670.1 48.35 C423.47 47.18, 177.42 47.37, 0 48.35 M0 48.35 C0.66 33.77, 2.16 22.11, 0 0 M0 48.35 C0.03 35.55, 0.25 22.07, 0 0" stroke="#9c36b5" stroke-width="2" fill="none"></path></g><g transform="translate(411.9359774995834 377.4496779248452) rotate(0 135.55990600585938 12.5)"><text x="135.55990600585938" y="17.52" font-family="Virgil, Segoe UI Emoji" font-size="20px" fill="#9c36b5" text-anchor="middle" style="white-space: pre;" direction="ltr" dominant-baseline="alphabetic">Layer N: Update Entrypoint</text></g><g stroke-linecap="round" transform="translate(213.54486157075715 161.93809758258317) rotate(0 335.05116746635343 24.173966172799965)"><path d="M0 0 C175.17 0.54, 350.68 0.66, 670.1 0 M0 0 C263.07 -2.43, 525.94 -2.6, 670.1 0 M670.1 0 C671.46 17.53, 671.8 36.9, 670.1 48.35 M670.1 0 C669.71 13.84, 670.57 28.97, 670.1 48.35 M670.1 48.35 C523.93 46.69, 378.63 47, 0 48.35 M670.1 48.35 C473.7 49.23, 277.38 48.74, 0 48.35 M0 48.35 C0.3 37.21, 1.05 28.94, 0 0 M0 48.35 C-0.28 38.55, -0.76 27.31, 0 0" stroke="#9c36b5" stroke-width="2" fill="none"></path></g><g transform="translate(415.9361169277356 173.61206375538313) rotate(0 132.659912109375 12.5)"><text x="132.659912109375" y="17.52" font-family="Virgil, Segoe UI Emoji" font-size="20px" fill="#9c36b5" text-anchor="middle" style="white-space: pre;" direction="ltr" dominant-baseline="alphabetic">Layer N+1: Container Layer</text></g><g transform="translate(78.71511317675558 10) rotate(0 145.09593200683597 17.5)"><text x="0" y="24.528" font-family="Virgil, Segoe UI Emoji" font-size="28px" fill="#1e1e1e" text-anchor="start" style="white-space: pre;" direction="ltr" dominant-baseline="alphabetic">Layered architecture</text></g><g stroke-linecap="round"><g transform="translate(71.34192374648111 44.34603965233396) rotate(0 157.87152096973293 0)"><path d="M0 0 C104.43 0.19, 208.59 -1.16, 315.74 0 M0 0 C64.18 0.93, 126.86 1.71, 315.74 0" stroke="#1e1e1e" stroke-width="2" fill="none"></path></g></g><mask></mask><g transform="translate(81.98067910905027 672.7377659586391) rotate(0 146.59986877441406 12.5)"><text x="0" y="17.52" font-family="Virgil, Segoe UI Emoji" font-size="20px" fill="#e03131" text-anchor="start" style="white-space: pre;" direction="ltr" dominant-baseline="alphabetic">docker build Dockerfile -t app</text></g><g transform="translate(93.43651781564492 240.11415083648353) rotate(0 72.06993865966797 12.5)"><text x="0" y="17.52" font-family="Virgil, Segoe UI Emoji" font-size="20px" fill="#2f9e44" text-anchor="start" style="white-space: pre;" direction="ltr" dominant-baseline="alphabetic">docker run app</text></g><g stroke-linecap="round"><g transform="translate(98.9390491217383 262.2310680235953) rotate(0 78.8071260346735 0)"><path d="M0 0 C53.9 -0.47, 109.72 -1.13, 157.61 0 M0 0 C58.97 0.85, 116.89 1.6, 157.61 0" stroke="#2f9e44" stroke-width="2" fill="none"></path></g></g><mask></mask><g stroke-linecap="round"><g transform="translate(72.83117672107781 698.3294030262891) rotate(0 159.54816751884374 0)"><path d="M0 0 C95.01 -3.5, 188.69 -3.31, 319.1 0 M0 0 C93.6 -1.58, 188.56 -2.71, 319.1 0" stroke="#e03131" stroke-width="2" fill="none"></path></g></g><mask></mask></svg>