<svg version="1.1" xmlns="http://www.w3.org/2000/svg" viewBox="0 0 935.9891491346361 1147.8106767294573" width="935.9891491346361" height="1147.8106767294573">
  <!-- svg-source:excalidraw -->
  
  <defs>
    <style class="style-fonts">
      @font-face {
        font-family: "Virgil";
        src: url("https://excalidraw.com/Virgil.woff2");
      }
      @font-face {
        font-family: "Cascadia";
        src: url("https://excalidraw.com/Cascadia.woff2");
      }
      @font-face {
        font-family: "Assistant";
        src: url("https://excalidraw.com/Assistant-Regular.woff2");
      }
    </style>
    
  </defs>
  <rect x="0" y="0" width="935.9891491346361" height="1147.8106767294573" fill="#ffffff"></rect><g stroke-linecap="round" transform="translate(48.90870696962975 532.6119961301422) rotate(0 257.3292496486479 115.45040950038594)"><path d="M32 0 C179.83 -0.78, 327.29 -1.89, 482.66 0 M32 0 C211.81 1.15, 391.79 0.42, 482.66 0 M482.66 0 C503.58 -0.28, 516.02 12.14, 514.66 32 M482.66 0 C503.65 0.55, 514.02 11.77, 514.66 32 M514.66 32 C513.94 82.62, 515.92 131.25, 514.66 198.9 M514.66 32 C512.69 96.46, 512.83 160.46, 514.66 198.9 M514.66 198.9 C514.04 218.91, 504.11 231.75, 482.66 230.9 M514.66 198.9 C515.87 218.94, 503.33 229.8, 482.66 230.9 M482.66 230.9 C312.67 231.47, 141.39 231.19, 32 230.9 M482.66 230.9 C314.71 230.22, 145.91 230.47, 32 230.9 M32 230.9 C12.66 231.16, -0.53 218.68, 0 198.9 M32 230.9 C11.03 232.85, 0.44 219.28, 0 198.9 M0 198.9 C-0.24 138.17, -0.85 77.81, 0 32 M0 198.9 C-1.32 165.16, -0.98 131.16, 0 32 M0 32 C-0.57 11.79, 11.5 -1.79, 32 0 M0 32 C-1.82 9.64, 9.31 -1.55, 32 0" stroke="#1e1e1e" stroke-width="1" fill="none"></path></g><g stroke-linecap="round"><g transform="translate(95.92587155584852 535.24661935679) rotate(0 0 113.66330399216906)"><path d="M-0.8 0.86 C-0.66 38.84, -0.04 189.89, -0.08 227.63 M0.99 0.26 C1.04 37.88, -1.12 187.61, -1.08 225.67" stroke="#1e1e1e" stroke-width="1" fill="none"></path></g></g><mask></mask><g stroke-linecap="round"><g transform="translate(135.71078777677758 535.5214418699677) rotate(0 0 113.66330399216906)"><path d="M1.06 -0.64 C1.11 37.18, 0.22 188.71, -0.14 226.65 M0.16 1.64 C0.08 39.63, -1.34 190.08, -1.17 227.84" stroke="#1e1e1e" stroke-width="1" fill="none"></path></g></g><mask></mask><g stroke-linecap="round"><g transform="translate(177.96532854576208 531.6981275129212) rotate(0 0 113.66330399216906)"><path d="M0.16 1.02 C0.24 38.75, 0.89 189.88, 0.93 227.57 M-1.22 0.51 C-1.25 38.37, 0.29 187.59, 0.47 225.58" stroke="#1e1e1e" stroke-width="1" fill="none"></path></g></g><mask></mask><g stroke-linecap="round"><g transform="translate(216.4027086306146 534.5920575563914) rotate(0 0 113.66330399216906)"><path d="M-0.68 0.12 C-0.88 38.17, -0.26 189.7, -0.02 227.66 M1.16 -0.86 C0.7 36.87, -0.86 187.93, -0.97 225.71" stroke="#1e1e1e" stroke-width="1" fill="none"></path></g></g><mask></mask><g stroke-linecap="round"><g transform="translate(267.16219419672416 532.8715619382804) rotate(0 0 113.66330399216906)"><path d="M-0.55 0.96 C-0.63 38.74, -0.98 189.51, -0.79 227.23 M1.36 0.41 C1.7 38.35, 1.71 190.69, 1.5 228.71" stroke="#1e1e1e" stroke-width="1" fill="none"></path></g></g><mask></mask><g stroke-linecap="round"><g transform="translate(315.0742210971084 535.320202915881) rotate(0 0 113.66330399216906)"><path d="M1.13 -0.5 C1.05 37.39, 0.5 188.89, 0.46 226.92 M0.27 -1.81 C-0.02 36.29, -0.31 189.75, -0.25 228.24" stroke="#1e1e1e" stroke-width="1" fill="none"></path></g></g><mask></mask><g stroke-linecap="round"><g transform="translate(366.1657578765512 536.3905205725526) rotate(0 0 113.66330399216906)"><path d="M-0.45 -0.31 C-0.65 37.62, -0.42 190.54, -0.28 228.41 M1.52 -1.52 C1.06 36.03, -1.09 188.6, -1.38 226.86" stroke="#1e1e1e" stroke-width="1" fill="none"></path></g></g><mask></mask><g stroke-linecap="round"><g transform="translate(419.19986571122536 536.9905338025079) rotate(0 0 113.66330399216906)"><path d="M-0.25 0.05 C-0.4 38.07, -0.98 190.63, -0.89 228.43 M1.82 -0.97 C2.04 36.72, 1.71 188.74, 1.35 226.89" stroke="#1e1e1e" stroke-width="1" fill="none"></path></g></g><mask></mask><g stroke-linecap="round"><g transform="translate(468.6593961454887 535.3171655886345) rotate(0 0 113.66330399216906)"><path d="M0.37 -0.52 C0.3 37.27, -0.44 189.51, -0.69 227.67 M-0.89 1.83 C-0.55 39.15, 1.31 188.25, 1.66 225.73" stroke="#1e1e1e" stroke-width="1" fill="none"></path></g></g><mask></mask><g stroke-linecap="round"><g transform="translate(520.5984629724999 534.914635897651) rotate(0 0 113.66330399216906)"><path d="M-0.23 -0.31 C0 37.29, 0.27 188.56, 0.39 226.51 M-1.82 -1.52 C-1.61 36.13, -0.65 189.24, -0.35 227.63" stroke="#1e1e1e" stroke-width="1" fill="none"></path></g></g><mask></mask><g stroke-linecap="round"><g transform="translate(50.90520454253783 576.9324087971701) rotate(0 254.00553315653133 0)"><path d="M-0.16 0.26 C84.34 0.54, 422.95 0.69, 507.8 0.47 M-1.71 -0.65 C82.55 -0.63, 421.68 -1.46, 506.73 -1.41" stroke="#1e1e1e" stroke-width="1" fill="none"></path></g></g><mask></mask><g stroke-linecap="round"><g transform="translate(49.50376975530435 605.0010746579582) rotate(0 254.00553315653133 0)"><path d="M-0.47 0.35 C83.95 0.12, 421.93 -0.66, 506.87 -0.59 M1.49 -0.52 C86.23 -0.66, 424.4 0.75, 508.99 0.64" stroke="#1e1e1e" stroke-width="1" fill="none"></path></g></g><mask></mask><g stroke-linecap="round"><g transform="translate(46.75862534254475 636.6551481459267) rotate(0 254.00553315653133 0)"><path d="M-0.82 -0.61 C84.08 -0.8, 424.05 -1.07, 508.9 -0.83 M0.95 1.68 C85.81 1.59, 423.97 0.73, 508.41 0.27" stroke="#1e1e1e" stroke-width="1" fill="none"></path></g></g><mask></mask><g stroke-linecap="round"><g transform="translate(51.84573001314948 666.7342259310774) rotate(0 254.00553315653133 0)"><path d="M0.86 -0.6 C85.41 -0.44, 423.07 0.93, 507.61 1.17 M-0.15 1.7 C84.18 1.54, 421.87 0.13, 506.45 -0.35" stroke="#1e1e1e" stroke-width="1" fill="none"></path></g></g><mask></mask><g stroke-linecap="round"><g transform="translate(50.90575511998213 702.2705039877135) rotate(0 254.00553315653133 0)"><path d="M0.44 0.14 C85.16 0.06, 422.48 -0.87, 507.18 -0.93 M-0.79 -0.84 C84.41 -0.75, 424.63 -0.18, 509.45 0.12" stroke="#1e1e1e" stroke-width="1" fill="none"></path></g></g><mask></mask><g stroke-linecap="round"><g transform="translate(52.24564749415413 731.1487605008165) rotate(0 254.00553315653133 0)"><path d="M0.71 -0.24 C85.67 0.03, 424.39 0.34, 509.1 0.5 M-0.38 -1.42 C84.57 -1.4, 423.88 -1.39, 508.72 -1.35" stroke="#1e1e1e" stroke-width="1" fill="none"></path></g></g><mask></mask><g stroke-linecap="round" transform="translate(135.82430962863964 533.8727458779518) rotate(0 21.220614191342065 21.220614191342065)"><path d="M2.82 2.46 C2.82 2.46, 2.82 2.46, 2.82 2.46 M2.82 2.46 C2.82 2.46, 2.82 2.46, 2.82 2.46 M3.22 8.1 C4.67 5.36, 7.55 4.1, 10.44 -0.2 M3.22 8.1 C5.19 5.35, 7.36 3.8, 10.44 -0.2 M2.96 14.5 C5.51 10.17, 8.37 6.96, 13.45 2.42 M2.96 14.5 C4.91 11.03, 9.02 7.95, 13.45 2.42 M2.7 20.89 C7.62 13.04, 15.73 5.98, 18.44 2.78 M2.7 20.89 C5.93 17.63, 9.42 13.69, 18.44 2.78 M2.43 27.29 C9.4 18.08, 18.67 8.97, 24.08 2.39 M2.43 27.29 C8.49 20, 12.78 13.95, 24.08 2.39 M2.17 33.69 C7.15 26.29, 12.5 19.27, 29.07 2.75 M2.17 33.69 C11.96 23.38, 19.3 13.85, 29.07 2.75 M3.88 37.82 C10.45 27.11, 21.58 20.56, 34.71 2.35 M3.88 37.82 C10.88 30.34, 17.42 22.64, 34.71 2.35 M5.59 41.96 C13.37 33.75, 22.64 23.43, 39.05 3.47 M5.59 41.96 C16.95 29.75, 29.36 15.99, 39.05 3.47 M9.26 43.83 C15.75 33.92, 27.88 23.36, 42.72 5.34 M9.26 43.83 C18.77 33.48, 25.51 24.85, 42.72 5.34 M13.59 44.94 C20.22 37.46, 24.84 30.44, 43.11 10.98 M13.59 44.94 C23.46 34.27, 31.46 23.96, 43.11 10.98 M18.58 45.3 C27.44 37.95, 35.44 26.47, 42.85 17.38 M18.58 45.3 C23.76 38.68, 29.13 31.58, 42.85 17.38 M24.22 44.91 C29.54 36.69, 36.04 28.52, 43.25 23.02 M24.22 44.91 C30.88 37.21, 38.56 29.16, 43.25 23.02 M29.21 45.27 C33.29 40.57, 36.17 36.62, 42.99 29.42 M29.21 45.27 C32.43 41.28, 35.24 38.41, 42.99 29.42 M34.85 44.87 C38.42 43.61, 39.12 39.38, 44.69 33.55 M34.85 44.87 C36.33 42.77, 39.04 40.16, 44.69 33.55" stroke="#1971c2" stroke-width="0.5" fill="none"></path><path d="M10.61 0 C17.45 1.83, 28.82 0.31, 31.83 0 M10.61 0 C16.85 0.52, 24.7 0.97, 31.83 0 M31.83 0 C40.62 -1.65, 43.81 4.51, 42.44 10.61 M31.83 0 C41.01 -0.91, 42.81 2.2, 42.44 10.61 M42.44 10.61 C42.09 17.77, 43.75 20.45, 42.44 31.83 M42.44 10.61 C41.45 15.57, 42.87 21.8, 42.44 31.83 M42.44 31.83 C41.15 38.39, 40.2 43.13, 31.83 42.44 M42.44 31.83 C43.73 38.37, 37.59 44.05, 31.83 42.44 M31.83 42.44 C25.55 42.55, 22.71 43.48, 10.61 42.44 M31.83 42.44 C24.87 41.71, 18.77 41.67, 10.61 42.44 M10.61 42.44 C5.15 43.62, -1.5 37.36, 0 31.83 M10.61 42.44 C2.16 42.44, -0.67 37.77, 0 31.83 M0 31.83 C-0.14 24.77, 0.79 15.73, 0 10.61 M0 31.83 C0.25 27.63, 0.67 22.41, 0 10.61 M0 10.61 C0.51 4.3, 4.28 -1.3, 10.61 0 M0 10.61 C-0.9 3.82, 3.4 0.65, 10.61 0" stroke="#1971c2" stroke-width="1" fill="none"></path></g><g stroke-linecap="round" transform="translate(271.1057250984459 666.5015845738411) rotate(0 21.220614191342065 17.82531915873608)"><path d="M0.83 4.7 C0.83 4.7, 0.83 4.7, 0.83 4.7 M0.83 4.7 C0.83 4.7, 0.83 4.7, 0.83 4.7 M0.57 11.1 C3.38 7.58, 4.18 7.53, 9.75 0.53 M0.57 11.1 C3.73 7.36, 6.33 4.03, 9.75 0.53 M0.31 17.49 C5.39 14.37, 5.35 8.46, 14.74 0.89 M0.31 17.49 C4.06 12.53, 7.75 9.21, 14.74 0.89 M0.05 23.89 C3.3 18.12, 7.49 15.16, 20.38 0.5 M0.05 23.89 C8.75 14.26, 16.57 6.04, 20.38 0.5 M1.1 28.78 C9.33 20.38, 16.98 13.22, 25.37 0.86 M1.1 28.78 C10.58 18.87, 18.29 9.04, 25.37 0.86 M2.15 33.67 C11.07 20.76, 23.47 10.19, 31.01 0.46 M2.15 33.67 C9.21 25.78, 16.74 15.95, 31.01 0.46 M6.48 34.78 C12.08 28.43, 22.59 20.11, 36 0.82 M6.48 34.78 C15.13 25.59, 22.45 15.71, 36 0.82 M10.81 35.9 C20.38 25.62, 27.75 17.73, 39.68 2.69 M10.81 35.9 C20.1 25.57, 26.71 16.02, 39.68 2.69 M15.8 36.26 C24.76 22.56, 38 13.82, 42.04 6.07 M15.8 36.26 C21.82 29.3, 26.6 23.51, 42.04 6.07 M21.44 35.86 C25.13 28.66, 34.25 23.4, 43.09 10.96 M21.44 35.86 C28.08 28.73, 34.92 20.71, 43.09 10.96 M26.43 36.22 C34.11 27.43, 40.45 21.1, 42.83 17.36 M26.43 36.22 C32.63 28.03, 39.67 21.47, 42.83 17.36 M32.07 35.83 C35.11 32.99, 37.29 28.8, 43.22 23 M32.07 35.83 C34.24 33.44, 36.89 30.54, 43.22 23 M39.03 33.92 C39.53 32.98, 40.52 32.25, 40.99 31.66 M39.03 33.92 C39.57 33.25, 40.17 32.89, 40.99 31.66" stroke="#1971c2" stroke-width="0.5" fill="none"></path><path d="M8.91 0 C15.49 1.7, 22.18 1.34, 33.53 0 M8.91 0 C16.27 -0.48, 25.06 -0.15, 33.53 0 M33.53 0 C40.04 1.03, 41.03 3.57, 42.44 8.91 M33.53 0 C40.24 -0.61, 40.54 1.61, 42.44 8.91 M42.44 8.91 C41.36 14.56, 41.51 20.61, 42.44 26.74 M42.44 8.91 C42.54 13.24, 41.97 18.73, 42.44 26.74 M42.44 26.74 C43.23 32.36, 40.64 35.89, 33.53 35.65 M42.44 26.74 C42.32 31.08, 39.85 37.44, 33.53 35.65 M33.53 35.65 C26.86 33.88, 20.59 33.81, 8.91 35.65 M33.53 35.65 C26.45 35.41, 21.98 35.41, 8.91 35.65 M8.91 35.65 C4.78 36.65, -1.53 31.54, 0 26.74 M8.91 35.65 C1.93 36.6, -1.02 30.47, 0 26.74 M0 26.74 C0.78 20.55, 0.34 13.47, 0 8.91 M0 26.74 C-0.3 22.22, -0.55 16.17, 0 8.91 M0 8.91 C0.78 3.78, 3.95 -1.37, 8.91 0 M0 8.91 C-2.06 2.48, 0.83 0.07, 8.91 0" stroke="#1971c2" stroke-width="1" fill="none"></path></g><g stroke-linecap="round" transform="translate(422.3026012117598 666.713755097658) rotate(0 22.281644900909214 17.82531915873608)"><path d="M0.83 4.7 C0.83 4.7, 0.83 4.7, 0.83 4.7 M0.83 4.7 C0.83 4.7, 0.83 4.7, 0.83 4.7 M0.57 11.1 C2.6 8.78, 3.57 5.36, 9.75 0.53 M0.57 11.1 C2.71 8.9, 5.64 5.92, 9.75 0.53 M0.31 17.49 C4.46 11.18, 8.43 6.8, 14.74 0.89 M0.31 17.49 C3.97 13.27, 7.48 9.13, 14.74 0.89 M0.05 23.89 C7.18 17.76, 11.36 10.65, 20.38 0.5 M0.05 23.89 C4.62 17.97, 9.51 13.14, 20.38 0.5 M1.1 28.78 C7.53 18.79, 17.94 11.49, 25.37 0.86 M1.1 28.78 C6.83 22.13, 12.43 16.84, 25.37 0.86 M2.15 33.67 C10.27 22.24, 21.22 14.64, 31.01 0.46 M2.15 33.67 C9.01 24.47, 18.2 15.72, 31.01 0.46 M6.48 34.78 C18.03 23.59, 26.98 8.38, 36 0.82 M6.48 34.78 C15.17 25.27, 22.17 16.37, 36 0.82 M10.81 35.9 C21.62 24.17, 30.02 14.02, 40.33 1.94 M10.81 35.9 C17.15 27.63, 25.92 19.45, 40.33 1.94 M15.8 36.26 C24.04 26.31, 34.87 14.1, 43.35 4.56 M15.8 36.26 C26.75 22.91, 37.45 11.51, 43.35 4.56 M21.44 35.86 C27.51 29.38, 36.58 21.23, 45.06 8.69 M21.44 35.86 C27.84 27.42, 35.64 20.14, 45.06 8.69 M26.43 36.22 C29.44 30.21, 36.6 23.74, 44.8 15.09 M26.43 36.22 C33.78 28, 40.73 18.71, 44.8 15.09 M32.07 35.83 C37.21 31.02, 41.38 24.24, 44.54 21.49 M32.07 35.83 C36.42 30.51, 40.89 25.27, 44.54 21.49 M37.71 35.43 C39.89 33.44, 40.79 31.16, 44.93 27.13 M37.71 35.43 C39.81 33.02, 42.34 29.78, 44.93 27.13" stroke="#1971c2" stroke-width="0.5" fill="none"></path><path d="M8.91 0 C18.36 0.04, 30.46 1.21, 35.65 0 M8.91 0 C19.59 0.91, 29.33 0.45, 35.65 0 M35.65 0 C40.88 1.01, 42.63 2.15, 44.56 8.91 M35.65 0 C40.06 2.26, 43.33 1.05, 44.56 8.91 M44.56 8.91 C42.86 12.41, 44.5 18.83, 44.56 26.74 M44.56 8.91 C44.95 15.22, 43.97 20.4, 44.56 26.74 M44.56 26.74 C45.33 30.95, 43.18 35.92, 35.65 35.65 M44.56 26.74 C44.89 31.52, 43.64 37.67, 35.65 35.65 M35.65 35.65 C29.51 35.31, 24.13 35.41, 8.91 35.65 M35.65 35.65 C29.89 36.56, 22.9 34.84, 8.91 35.65 M8.91 35.65 C4.28 36.93, 0.34 30.97, 0 26.74 M8.91 35.65 C3.43 35.84, 1.97 31.98, 0 26.74 M0 26.74 C0.62 23.98, -1.17 20.15, 0 8.91 M0 26.74 C-0.27 22.08, -0.34 18.09, 0 8.91 M0 8.91 C1.14 2.11, 4.13 -0.55, 8.91 0 M0 8.91 C0.62 4.95, 4.12 0.53, 8.91 0" stroke="#1971c2" stroke-width="1" fill="none"></path></g><g stroke-linecap="round" transform="translate(367.5534101220792 604.2190042100415) rotate(0 26.525767739177354 16.127663547411203)"><path d="M2.15 1.87 C2.15 1.87, 2.15 1.87, 2.15 1.87 M2.15 1.87 C2.15 1.87, 2.15 1.87, 2.15 1.87 M0.57 9.77 C4.28 6.83, 5.03 3.14, 8.45 0.72 M0.57 9.77 C2.94 6.46, 5.22 4.1, 8.45 0.72 M0.31 16.17 C5.04 9.49, 8.14 5.33, 14.09 0.32 M0.31 16.17 C4.44 10.71, 9.66 5.66, 14.09 0.32 M0.71 21.81 C9.1 15.72, 12.85 5.96, 19.08 0.68 M0.71 21.81 C6.08 16.2, 10.95 10.6, 19.08 0.68 M1.76 26.7 C8.45 18.97, 11.11 15.82, 24.72 0.29 M1.76 26.7 C9.53 18.31, 17.95 8.82, 24.72 0.29 M3.46 30.84 C10.71 24.03, 17.77 16.84, 29.71 0.65 M3.46 30.84 C8.86 23.21, 16.47 16.33, 29.71 0.65 M7.79 31.95 C16.28 19.11, 27.87 7.02, 35.35 0.25 M7.79 31.95 C14.25 24.77, 20.19 17.76, 35.35 0.25 M12.78 32.31 C20.92 23.23, 32.61 10.35, 40.34 0.61 M12.78 32.31 C22.28 21.78, 30.71 12.1, 40.34 0.61 M17.77 32.67 C25.41 23.16, 34.71 13.11, 45.98 0.22 M17.77 32.67 C23.27 26.74, 30.12 19.46, 45.98 0.22 M23.41 32.28 C31.12 23.24, 38.33 14.4, 49.65 2.09 M23.41 32.28 C30.92 23.74, 38.55 14.65, 49.65 2.09 M28.4 32.64 C35.56 21.15, 44.57 12.31, 52.02 5.47 M28.4 32.64 C33.22 26.65, 40.08 19.81, 52.02 5.47 M33.39 33 C39.84 26.99, 44.68 23.27, 53.72 9.6 M33.39 33 C38.03 26.46, 44.26 20.86, 53.72 9.6 M39.03 32.6 C41.85 28.63, 43.73 25.06, 53.46 16 M39.03 32.6 C44.3 27.18, 49.72 20.44, 53.46 16 M44.02 32.96 C48.91 28.28, 51.15 23.94, 53.2 22.4 M44.02 32.96 C46.53 30.79, 48.81 27.88, 53.2 22.4" stroke="#1971c2" stroke-width="0.5" fill="none"></path><path d="M8.06 0 C17.19 -1.69, 25.99 0.61, 44.99 0 M8.06 0 C20.95 0.52, 34.42 0.89, 44.99 0 M44.99 0 C50.28 0.05, 53.33 2.18, 53.05 8.06 M44.99 0 C49.71 -1.67, 54.95 3.83, 53.05 8.06 M53.05 8.06 C51.42 11.32, 53.93 15.64, 53.05 24.19 M53.05 8.06 C53.44 14.36, 52.75 18.99, 53.05 24.19 M53.05 24.19 C52.24 28.64, 48.9 34, 44.99 32.26 M53.05 24.19 C50.96 30.02, 48.1 33.02, 44.99 32.26 M44.99 32.26 C36.24 31.69, 28.92 31.23, 8.06 32.26 M44.99 32.26 C31.87 33.01, 18.94 32.68, 8.06 32.26 M8.06 32.26 C2.52 33.59, -1.87 31.4, 0 24.19 M8.06 32.26 C1.39 33.66, 2.02 31.65, 0 24.19 M0 24.19 C0.82 18.14, -0.28 13.2, 0 8.06 M0 24.19 C0.75 19.76, 0.03 15.04, 0 8.06 M0 8.06 C-1.36 1.76, 1.69 0.61, 8.06 0 M0 8.06 C0.74 2.01, 4.09 -0.83, 8.06 0" stroke="#1971c2" stroke-width="1" fill="none"></path></g><g stroke-linecap="round" transform="translate(19.392211821254932 803.7677827224977) rotate(0 21.220614191342065 17.82531915873608)"><path d="M0.83 4.7 C0.83 4.7, 0.83 4.7, 0.83 4.7 M0.83 4.7 C0.83 4.7, 0.83 4.7, 0.83 4.7 M0.57 11.1 C3.55 8.08, 5.65 6.77, 9.75 0.53 M0.57 11.1 C2.43 8.04, 4.95 5.46, 9.75 0.53 M0.31 17.49 C5.57 11.98, 12.04 4.26, 14.74 0.89 M0.31 17.49 C5.25 12.05, 9.46 7.35, 14.74 0.89 M0.05 23.89 C6.74 17.17, 16.28 6.71, 20.38 0.5 M0.05 23.89 C5.89 17.77, 11.73 9.19, 20.38 0.5 M1.75 28.02 C11.33 16.41, 18.77 9.52, 25.37 0.86 M1.75 28.02 C10.41 18.13, 19.69 6.03, 25.37 0.86 M2.15 33.67 C12.79 21.35, 20.24 10.4, 31.01 0.46 M2.15 33.67 C12.55 20.42, 24.53 8.58, 31.01 0.46 M6.48 34.78 C10.97 27.35, 18.08 20.08, 35.35 1.58 M6.48 34.78 C13.79 26.04, 22.13 17.59, 35.35 1.58 M10.15 36.65 C19.45 22.82, 31.67 10.53, 39.68 2.69 M10.15 36.65 C16.91 29.64, 23.93 21.55, 39.68 2.69 M15.14 37.01 C22.93 30.03, 30.98 19.69, 43.35 4.56 M15.14 37.01 C25.77 24.7, 37.18 12.03, 43.35 4.56 M20.78 36.62 C28.29 26.99, 37.41 18.56, 43.75 10.2 M20.78 36.62 C25.69 29.68, 33.15 24.49, 43.75 10.2 M25.77 36.98 C33.74 30.11, 39.11 22.78, 44.14 15.85 M25.77 36.98 C32.54 29.68, 36.79 23.68, 44.14 15.85 M31.41 36.58 C33.44 33.53, 38.02 30.01, 43.88 22.24 M31.41 36.58 C34.37 31.86, 38.62 27.06, 43.88 22.24 M35.75 37.7 C39.2 34.2, 40.63 32.35, 44.27 27.89 M35.75 37.7 C38.14 34.83, 40.29 32.24, 44.27 27.89" stroke="#1971c2" stroke-width="0.5" fill="none"></path><path d="M8.91 0 C14.33 -1.18, 17.43 0.74, 33.53 0 M8.91 0 C13.97 -0.78, 19.02 -0.93, 33.53 0 M33.53 0 C40.94 -0.61, 43.93 4.19, 42.44 8.91 M33.53 0 C38.16 -0.5, 44.61 2.16, 42.44 8.91 M42.44 8.91 C41.45 14.18, 41.1 16.83, 42.44 26.74 M42.44 8.91 C42.81 13.8, 43 19.27, 42.44 26.74 M42.44 26.74 C43.85 33.07, 39.4 37.56, 33.53 35.65 M42.44 26.74 C42.06 30.77, 41.52 34.7, 33.53 35.65 M33.53 35.65 C26.87 35.27, 19.56 37.35, 8.91 35.65 M33.53 35.65 C27.15 34.81, 19.86 35.18, 8.91 35.65 M8.91 35.65 C3.29 35.15, -0.22 33.66, 0 26.74 M8.91 35.65 C1.46 36.3, -0.87 31.74, 0 26.74 M0 26.74 C-0.31 23.57, 0.01 17.09, 0 8.91 M0 26.74 C-0.09 20.18, 0.65 14.67, 0 8.91 M0 8.91 C-1.81 2.16, 2.36 -1.74, 8.91 0 M0 8.91 C0.8 3.39, 2.45 -1.56, 8.91 0" stroke="#1971c2" stroke-width="1" fill="none"></path></g><g transform="translate(73.76257512746906 808.268188871001) rotate(0 162.69989013671875 12.5)"><text x="0" y="17.52" font-family="Virgil, Segoe UI Emoji" font-size="20px" fill="#1971c2" text-anchor="start" style="white-space: pre;" direction="ltr" dominant-baseline="alphabetic">Blocks of data all over the disc</text></g><g stroke-linecap="round" transform="translate(33.461089957251716 393.83932765983116) rotate(0 266.38503470838214 39.208175627652906)"><path d="M19.6 0 C140.87 -1.29, 261.31 -1.37, 513.17 0 M19.6 0 C118.99 0.47, 217.92 0.5, 513.17 0 M513.17 0 C526.82 0.11, 532.24 4.98, 532.77 19.6 M513.17 0 C528.53 -1.87, 534.14 4.69, 532.77 19.6 M532.77 19.6 C532.99 27.37, 534.57 36.58, 532.77 58.81 M532.77 19.6 C532.94 30.86, 534.04 43.02, 532.77 58.81 M532.77 58.81 C534.29 70.93, 528.21 79.34, 513.17 78.42 M532.77 58.81 C533.45 72.94, 524.15 76.35, 513.17 78.42 M513.17 78.42 C395 78.04, 277.72 77.57, 19.6 78.42 M513.17 78.42 C323.8 79.88, 135.1 79.51, 19.6 78.42 M19.6 78.42 C4.54 79.97, -0.74 71.91, 0 58.81 M19.6 78.42 C8.7 79.15, 0.76 71.9, 0 58.81 M0 58.81 C-0.37 49.07, -1.63 42.77, 0 19.6 M0 58.81 C-0.37 43.81, 0.89 29, 0 19.6 M0 19.6 C0.03 7.12, 5.66 1.66, 19.6 0 M0 19.6 C1.77 5.7, 6.79 -1.86, 19.6 0" stroke="#1971c2" stroke-width="1" fill="none"></path></g><g transform="translate(273.0261478589932 420.5475032874841) rotate(0 26.819976806640625 12.5)"><text x="26.819976806640625" y="17.52" font-family="Virgil, Segoe UI Emoji" font-size="20px" fill="#1971c2" text-anchor="middle" style="white-space: pre;" direction="ltr" dominant-baseline="alphabetic">Inode</text></g><g transform="translate(43.782788720196095 402.913103205404) rotate(0 53.578948974609375 6.824068548018914)"><text x="0" y="9.564614476903326" font-family="Virgil, Segoe UI Emoji" font-size="10.91850967683028px" fill="#1971c2" text-anchor="start" style="white-space: pre;" direction="ltr" dominant-baseline="alphabetic">8444249301460019</text></g><g stroke-linecap="round"><g transform="translate(157.31206120606294 472.4734352704827) rotate(0 0 31.569680948982693)"><path d="M-0.01 0.43 C-0.29 10.79, -1.11 52.2, -1.1 62.57 M-1.48 -0.39 C-1.45 10.09, 0.91 53.12, 1.03 63.81" stroke="#1971c2" stroke-width="1" fill="none"></path></g><g transform="translate(157.31206120606294 472.4734352704827) rotate(0 0 31.569680948982693)"><path d="M-8.35 40.64 C-4.31 46.81, -2.73 56.67, 1.03 63.81 M-8.35 40.64 C-5.98 47.63, -3.9 52.47, 1.03 63.81" stroke="#1971c2" stroke-width="1" fill="none"></path></g><g transform="translate(157.31206120606294 472.4734352704827) rotate(0 0 31.569680948982693)"><path d="M8.74 40.03 C6.88 46.41, 2.55 56.48, 1.03 63.81 M8.74 40.03 C6.65 47.3, 4.26 52.29, 1.03 63.81" stroke="#1971c2" stroke-width="1" fill="none"></path></g></g><mask></mask><g stroke-linecap="round"><g transform="translate(290.6063588638435 473.11117268956264) rotate(0 0 93.75241238927703)"><path d="M0.62 0.63 C0.82 31.93, 1.23 155.77, 1.1 186.77 M-0.51 -0.08 C-0.37 31.45, 0.81 156.65, 0.73 187.93" stroke="#1971c2" stroke-width="1" fill="none"></path></g><g transform="translate(290.6063588638435 473.11117268956264) rotate(0 0 93.75241238927703)"><path d="M-7.92 164.47 C-4.55 173.11, -4.29 177.88, 0.73 187.93 M-7.92 164.47 C-6.17 170.08, -3.64 175.69, 0.73 187.93" stroke="#1971c2" stroke-width="1" fill="none"></path></g><g transform="translate(290.6063588638435 473.11117268956264) rotate(0 0 93.75241238927703)"><path d="M9.18 164.4 C7.55 173.15, 2.81 177.94, 0.73 187.93 M9.18 164.4 C6.99 169.99, 5.58 175.62, 0.73 187.93" stroke="#1971c2" stroke-width="1" fill="none"></path></g></g><mask></mask><g stroke-linecap="round"><g transform="translate(392.64974696597756 474.38674484392686) rotate(0 0 60.588290576390136)"><path d="M-0.49 0.85 C-0.56 21.03, -0.93 101.1, -0.87 121.13 M1.46 0.25 C1.8 20.63, 1.79 102.31, 1.38 122.64" stroke="#1971c2" stroke-width="1" fill="none"></path></g><g transform="translate(392.64974696597756 474.38674484392686) rotate(0 0 60.588290576390136)"><path d="M-6.97 99.08 C-3.34 103.88, -2.63 111.35, 1.38 122.64 M-6.97 99.08 C-5.04 105.26, -2.15 113.2, 1.38 122.64" stroke="#1971c2" stroke-width="1" fill="none"></path></g><g transform="translate(392.64974696597756 474.38674484392686) rotate(0 0 60.588290576390136)"><path d="M10.13 99.22 C9.25 103.92, 5.44 111.34, 1.38 122.64 M10.13 99.22 C7.13 105.45, 5.1 113.35, 1.38 122.64" stroke="#1971c2" stroke-width="1" fill="none"></path></g></g><mask></mask><g stroke-linecap="round"><g transform="translate(443.6125662807831 479.3027566383237) rotate(0 -0.2894556704604838 91.00493977959206)"><path d="M1.06 -1.04 C0.92 29.38, -1.02 151.23, -1.48 181.7 M0.16 1.04 C0.44 31.69, 0.69 152.76, 0.76 183.08" stroke="#1971c2" stroke-width="1" fill="none"></path></g><g transform="translate(443.6125662807831 479.3027566383237) rotate(0 -0.2894556704604838 91.00493977959206)"><path d="M-7.85 159.6 C-7.57 163.9, -4.2 169.35, 0.76 183.08 M-7.85 159.6 C-5.08 167.04, -1.98 172.71, 0.76 183.08" stroke="#1971c2" stroke-width="1" fill="none"></path></g><g transform="translate(443.6125662807831 479.3027566383237) rotate(0 -0.2894556704604838 91.00493977959206)"><path d="M9.25 159.57 C5.25 164.02, 4.33 169.49, 0.76 183.08 M9.25 159.57 C7.24 167.15, 5.56 172.82, 0.76 183.08" stroke="#1971c2" stroke-width="1" fill="none"></path></g></g><mask></mask><g transform="translate(90.48513203221046 862.8803615430164) rotate(0 152.7398681640625 37.5)"><text x="0" y="17.52" font-family="Virgil, Segoe UI Emoji" font-size="20px" fill="#1971c2" text-anchor="start" style="white-space: pre;" direction="ltr" dominant-baseline="alphabetic">The Inode hold the information</text><text x="0" y="42.519999999999996" font-family="Virgil, Segoe UI Emoji" font-size="20px" fill="#1971c2" text-anchor="start" style="white-space: pre;" direction="ltr" dominant-baseline="alphabetic">of where all the pieces</text><text x="0" y="67.52" font-family="Virgil, Segoe UI Emoji" font-size="20px" fill="#1971c2" text-anchor="start" style="white-space: pre;" direction="ltr" dominant-baseline="alphabetic">of the data are stored</text></g><g transform="translate(451.09912992457976 861.7191210200407) rotate(0 132.47988891601562 62.50000000000006)"><text x="0" y="17.52" font-family="Virgil, Segoe UI Emoji" font-size="20px" fill="#1971c2" text-anchor="start" style="white-space: pre;" direction="ltr" dominant-baseline="alphabetic">And the Inode keeps track</text><text x="0" y="42.519999999999996" font-family="Virgil, Segoe UI Emoji" font-size="20px" fill="#1971c2" text-anchor="start" style="white-space: pre;" direction="ltr" dominant-baseline="alphabetic">of metadata like:</text><text x="0" y="67.52" font-family="Virgil, Segoe UI Emoji" font-size="20px" fill="#1971c2" text-anchor="start" style="white-space: pre;" direction="ltr" dominant-baseline="alphabetic">- Permissions</text><text x="0" y="92.52" font-family="Virgil, Segoe UI Emoji" font-size="20px" fill="#1971c2" text-anchor="start" style="white-space: pre;" direction="ltr" dominant-baseline="alphabetic">- Lass modified</text><text x="0" y="117.52" font-family="Virgil, Segoe UI Emoji" font-size="20px" fill="#1971c2" text-anchor="start" style="white-space: pre;" direction="ltr" dominant-baseline="alphabetic">- etc.</text></g><g stroke-linecap="round" transform="translate(147.41979677824838 452.47034967851494) rotate(0 45.43688146481395 7.473171856210627)"><path d="M3.74 0 C23.89 0.02, 43.65 1.07, 87.14 0 M3.74 0 C24.65 0.12, 44.64 0.47, 87.14 0 M87.14 0 C89.6 -0.76, 90.44 1.76, 90.87 3.74 M87.14 0 C90.46 -1.03, 89.82 2.15, 90.87 3.74 M90.87 3.74 C91.11 5.84, 91.16 7.86, 90.87 11.21 M90.87 3.74 C91.03 6.37, 90.83 9.24, 90.87 11.21 M90.87 11.21 C89.97 14.34, 88.89 14.51, 87.14 14.95 M90.87 11.21 C90.2 12.81, 89.51 14.65, 87.14 14.95 M87.14 14.95 C55.6 14.73, 24.96 15.48, 3.74 14.95 M87.14 14.95 C67.62 15.25, 48.55 15.54, 3.74 14.95 M3.74 14.95 C0.41 15.94, 0.28 12.85, 0 11.21 M3.74 14.95 C1.64 15.67, -0.25 14.84, 0 11.21 M0 11.21 C0.08 9.2, 0.22 7.1, 0 3.74 M0 11.21 C-0.06 9.45, 0.2 7.64, 0 3.74 M0 3.74 C-1 0.96, 0.74 0.53, 3.74 0 M0 3.74 C1.02 0.62, 1.36 -0.53, 3.74 0" stroke="#1e1e1e" stroke-width="1" fill="none"></path></g><g transform="translate(150.37478228062537 449.21991981175665) rotate(0 42.87196350097656 10)"><text x="0" y="14.016" font-family="Virgil, Segoe UI Emoji" font-size="16px" fill="#1e1e1e" text-anchor="start" style="white-space: pre;" direction="ltr" dominant-baseline="alphabetic">Permissions</text></g><g stroke-linecap="round" transform="translate(384.44964034691156 450.7906004978481) rotate(0 53.541772742020385 8.341560951644198)"><path d="M4.17 0 C29.6 0.31, 55.84 1.98, 102.91 0 M4.17 0 C26.52 0.9, 48.55 1.35, 102.91 0 M102.91 0 C105.11 -1.55, 106.16 1.32, 107.08 4.17 M102.91 0 C103.49 -0.43, 105.92 2.3, 107.08 4.17 M107.08 4.17 C107.92 7.09, 107.54 8.69, 107.08 12.51 M107.08 4.17 C107.03 6.82, 106.72 10.38, 107.08 12.51 M107.08 12.51 C106.91 16.64, 104.02 18.24, 102.91 16.68 M107.08 12.51 C107.52 15.85, 105.07 18.4, 102.91 16.68 M102.91 16.68 C79.72 18.28, 52.15 18.99, 4.17 16.68 M102.91 16.68 C77.76 15.94, 50.33 16.48, 4.17 16.68 M4.17 16.68 C3.18 18.19, 0.43 16.04, 0 12.51 M4.17 16.68 C0.31 18.22, -1.28 14.06, 0 12.51 M0 12.51 C0.27 9.96, 0.19 8.6, 0 4.17 M0 12.51 C0.37 9.57, -0.35 5.8, 0 4.17 M0 4.17 C-1.96 3.23, 0.67 0.05, 4.17 0 M0 4.17 C0.13 1.88, 1.71 1.25, 4.17 0" stroke="#1e1e1e" stroke-width="1" fill="none"></path></g><g transform="translate(389.6008513920824 450.2375590351978) rotate(0 47.96797180175781 10)"><text x="0" y="14.016" font-family="Virgil, Segoe UI Emoji" font-size="16px" fill="#1e1e1e" text-anchor="start" style="white-space: pre;" direction="ltr" dominant-baseline="alphabetic">Access Time</text></g><g transform="translate(137.83275921993754 321.0981347088115) rotate(0 35.91197967529297 10)"><text x="0" y="14.016" font-family="Virgil, Segoe UI Emoji" font-size="16px" fill="#1e1e1e" text-anchor="start" style="white-space: pre;" direction="ltr" dominant-baseline="alphabetic">Hard Link</text></g><g transform="translate(579.6381599419301 402.38036051922757) rotate(0 30.15198516845703 10)"><text x="0" y="14.016" font-family="Virgil, Segoe UI Emoji" font-size="16px" fill="#1e1e1e" text-anchor="start" style="white-space: pre;" direction="ltr" dominant-baseline="alphabetic">Links: 2</text></g><g stroke-linecap="round" transform="translate(528.8139914810031 398.62827039179115) rotate(0 14.155735776116217 14.155735776116217)"><path d="M13.47 0.2 C16.33 -0.04, 19.94 0.92, 22.37 2.74 C24.8 4.56, 27.3 8.05, 28.07 11.12 C28.83 14.19, 28.36 18.46, 26.97 21.17 C25.58 23.88, 22.51 26.25, 19.72 27.36 C16.94 28.48, 13.21 28.87, 10.26 27.88 C7.31 26.9, 3.7 24.04, 2.02 21.43 C0.35 18.83, -0.27 15.29, 0.21 12.25 C0.68 9.21, 2.45 5.3, 4.88 3.21 C7.32 1.11, 13.07 0.14, 14.8 -0.32 C16.54 -0.78, 15.38 0.18, 15.3 0.44 M16.56 -0.16 C19.55 0.38, 23.72 2.81, 25.56 5.36 C27.4 7.9, 27.63 11.98, 27.59 15.12 C27.54 18.26, 27.25 22.01, 25.29 24.19 C23.34 26.38, 19.1 27.94, 15.86 28.23 C12.61 28.53, 8.45 27.6, 5.82 25.95 C3.2 24.3, 0.98 21.22, 0.09 18.33 C-0.8 15.44, -0.72 11.36, 0.48 8.63 C1.69 5.9, 4.54 3.28, 7.33 1.94 C10.12 0.6, 15.5 0.86, 17.22 0.59 C18.93 0.32, 17.77 0.05, 17.62 0.33" stroke="#f08c00" stroke-width="1" fill="none"></path></g><g transform="translate(537.150560064365 404.0157106434855) rotate(0 5.6959991455078125 10)"><text x="0" y="14.016" font-family="Virgil, Segoe UI Emoji" font-size="16px" fill="#f08c00" text-anchor="start" style="white-space: pre;" direction="ltr" dominant-baseline="alphabetic">2</text></g><g transform="translate(272.3173271564997 10) rotate(0 17.823989868164062 10)"><text x="0" y="14.016" font-family="Virgil, Segoe UI Emoji" font-size="16px" fill="#1e1e1e" text-anchor="start" style="white-space: pre;" direction="ltr" dominant-baseline="alphabetic">home</text></g><g transform="translate(97.445709083358 98.67769384925154) rotate(0 42.74397277832031 10)"><text x="0" y="14.016" font-family="Virgil, Segoe UI Emoji" font-size="16px" fill="#1e1e1e" text-anchor="start" style="white-space: pre;" direction="ltr" dominant-baseline="alphabetic">aaron/files</text></g><g transform="translate(407.1075409969135 97.33219086072185) rotate(0 36.535972595214844 10)"><text x="0" y="14.016" font-family="Virgil, Segoe UI Emoji" font-size="16px" fill="#1e1e1e" text-anchor="start" style="white-space: pre;" direction="ltr" dominant-baseline="alphabetic">jane/files</text></g><g stroke-linecap="round" transform="translate(117.83589614063658 186.352775269879) rotate(0 30.284697163267992 24.82352847443235)"><path d="M0 0 C13.16 -0.6, 26.45 1.98, 60.57 0 M0 0 C18.22 -0.64, 35.82 -0.66, 60.57 0 M60.57 0 C62.15 19.32, 60.68 37.9, 60.57 49.65 M60.57 0 C61.82 15.69, 61.7 32.65, 60.57 49.65 M60.57 49.65 C38.7 48.86, 21.81 48.57, 0 49.65 M60.57 49.65 C43.63 49.83, 26.75 50.21, 0 49.65 M0 49.65 C1.78 35.33, 1.36 16.24, 0 0 M0 49.65 C0.08 30.55, -0.04 13.56, 0 0" stroke="#1e1e1e" stroke-width="1" fill="none"></path></g><g stroke-linecap="round" transform="translate(412.89364240574514 180.13252826150202) rotate(0 30.284697163267992 24.82352847443235)"><path d="M0 0 C16.83 -0.47, 36.31 -0.08, 60.57 0 M0 0 C19.36 0.31, 39.11 -1.02, 60.57 0 M60.57 0 C60.33 17.22, 62.03 35.55, 60.57 49.65 M60.57 0 C60.68 14.99, 59.9 30.28, 60.57 49.65 M60.57 49.65 C46.18 50.3, 29.57 49.98, 0 49.65 M60.57 49.65 C45.41 48.74, 30.34 49.4, 0 49.65 M0 49.65 C0.36 38.36, -1.54 28.77, 0 0 M0 49.65 C0.74 33.62, 0.13 15.66, 0 0" stroke="#1e1e1e" stroke-width="1" fill="none"></path></g><g transform="translate(97.50499106382631 245.92788826513922) rotate(0 52.095947265625 10)"><text x="0" y="14.016" font-family="Virgil, Segoe UI Emoji" font-size="16px" fill="#1e1e1e" text-anchor="start" style="white-space: pre;" direction="ltr" dominant-baseline="alphabetic">new_script.sh</text></g><g transform="translate(395.12958353653676 240.7318315847547) rotate(0 52.095947265625 10)"><text x="0" y="14.016" font-family="Virgil, Segoe UI Emoji" font-size="16px" fill="#1e1e1e" text-anchor="start" style="white-space: pre;" direction="ltr" dominant-baseline="alphabetic">new_script.sh</text></g><g stroke-linecap="round"><g transform="translate(285.3499831562044 59.2357749142937) rotate(0 -72.18353485606622 0)"><path d="M0 0 C-54.85 -1.06, -106.7 1.48, -144.37 0" stroke="#1e1e1e" stroke-width="1.5" fill="none" stroke-dasharray="8 9"></path></g></g><mask></mask><g stroke-linecap="round"><g transform="translate(140.98291344407198 94.5395063948659) rotate(0 0 -17.651865740286098)"><path d="M0 0 C-0.17 -11.06, 0.85 -23.67, 0 -35.3" stroke="#1e1e1e" stroke-width="1.5" fill="none" stroke-dasharray="8 9"></path></g></g><mask></mask><g stroke-linecap="round"><g transform="translate(432.86918463379743 59.76331387938893) rotate(0 -72.18353485606622 0)"><path d="M0 0 C-35.39 -0.05, -74.37 3.23, -144.37 0" stroke="#1e1e1e" stroke-width="1.5" fill="none" stroke-dasharray="8 9"></path></g></g><mask></mask><g stroke-linecap="round"><g transform="translate(435.8597533710026 96.58838903631991) rotate(0 0 -17.651865740286098)"><path d="M0 0 C-0.75 -13.16, 0.79 -25.91, 0 -35.3" stroke="#1e1e1e" stroke-width="1.5" fill="none" stroke-dasharray="8 9"></path></g></g><mask></mask><g stroke-linecap="round"><g transform="translate(289.7629796522324 56.71406950192494) rotate(0 0 -13.238899305214574)"><path d="M0 0 C0.78 -7.86, -0.48 -17.55, 0 -26.48" stroke="#1e1e1e" stroke-width="1.5" fill="none" stroke-dasharray="8 9"></path></g></g><mask></mask><g stroke-linecap="round"><g transform="translate(142.87418047896608 121.01731702967763) rotate(0 -0.6304263530921617 26.162591446074316)"><path d="M0 0 C0.91 21.15, 0.74 42.99, -1.26 52.33" stroke="#1e1e1e" stroke-width="1.5" fill="none" stroke-dasharray="8 9"></path></g><g transform="translate(142.87418047896608 121.01731702967763) rotate(0 -0.6304263530921617 26.162591446074316)"><path d="M-7.04 28 C-3.27 38.14, -0.66 48.95, -1.26 52.33" stroke="#1e1e1e" stroke-width="1.5" fill="none"></path></g><g transform="translate(142.87418047896608 121.01731702967763) rotate(0 -0.6304263530921617 26.162591446074316)"><path d="M9.95 29.98 C7.03 39.28, 2.95 49.32, -1.26 52.33" stroke="#1e1e1e" stroke-width="1.5" fill="none"></path></g></g><mask></mask><g stroke-linecap="round"><g transform="translate(438.54302181162757 130.47367625291284) rotate(0 0 21.119204670101908)"><path d="M0 0 C-0.4 14.81, 0.01 29.3, 0 42.24" stroke="#1e1e1e" stroke-width="1.5" fill="none" stroke-dasharray="8 9"></path></g><g transform="translate(438.54302181162757 130.47367625291284) rotate(0 0 21.119204670101908)"><path d="M-7.34 22.44 C-5.29 29.45, -2.34 36.17, 0 42.24" stroke="#1e1e1e" stroke-width="1.5" fill="none"></path></g><g transform="translate(438.54302181162757 130.47367625291284) rotate(0 0 21.119204670101908)"><path d="M7.1 22.35 C4.15 29.46, 2.11 36.21, 0 42.24" stroke="#1e1e1e" stroke-width="1.5" fill="none"></path></g></g><mask></mask><g stroke-linecap="round"><g transform="translate(167.80635288861959 276.99051928208405) rotate(0 58.576181570095514 56.26398399326882)"><path d="M0 0 C34.85 35.36, 71.24 68.71, 117.15 112.53 M0 0 C43.21 38.74, 84.25 79.06, 117.15 112.53" stroke="#f08c00" stroke-width="1" fill="none"></path></g><g transform="translate(167.80635288861959 276.99051928208405) rotate(0 58.576181570095514 56.26398399326882)"><path d="M94.51 101.93 C100.5 106.54, 107.91 108.63, 117.15 112.53 M94.51 101.93 C103.45 105.02, 110.84 109.04, 117.15 112.53" stroke="#f08c00" stroke-width="1" fill="none"></path></g><g transform="translate(167.80635288861959 276.99051928208405) rotate(0 58.576181570095514 56.26398399326882)"><path d="M106.62 89.85 C108.88 98.23, 112.57 104.03, 117.15 112.53 M106.62 89.85 C111.32 97.33, 114.4 105.65, 117.15 112.53" stroke="#f08c00" stroke-width="1" fill="none"></path></g></g><mask></mask><g transform="translate(421.5394337105772 295.7614231117849) rotate(0 119.48794555664062 30)"><text x="0" y="14.016" font-family="Virgil, Segoe UI Emoji" font-size="16px" fill="#1e1e1e" text-anchor="start" style="white-space: pre;" direction="ltr" dominant-baseline="alphabetic">Instead of copying the file, </text><text x="0" y="34.016" font-family="Virgil, Segoe UI Emoji" font-size="16px" fill="#1e1e1e" text-anchor="start" style="white-space: pre;" direction="ltr" dominant-baseline="alphabetic">we can create a new hard link</text><text x="0" y="54.016" font-family="Virgil, Segoe UI Emoji" font-size="16px" fill="#1e1e1e" text-anchor="start" style="white-space: pre;" direction="ltr" dominant-baseline="alphabetic">to the same Inode</text></g><g stroke-linecap="round"><g transform="translate(422.04763866220173 273.9511195086965) rotate(0 -45.90478374800614 56.740125764728305)"><path d="M-0.78 -1.14 C-15.91 17.8, -75.6 94.08, -90.62 113.15 M1.02 0.88 C-14.19 20.03, -75.58 95.58, -90.94 114.52" stroke="#f08c00" stroke-width="1" fill="none"></path></g><g transform="translate(422.04763866220173 273.9511195086965) rotate(0 -45.90478374800614 56.740125764728305)"><path d="M-82.77 90.89 C-87.34 100.31, -88.57 107.36, -90.94 114.52 M-82.77 90.89 C-85.07 97.18, -86.92 105.13, -90.94 114.52" stroke="#f08c00" stroke-width="1" fill="none"></path></g><g transform="translate(422.04763866220173 273.9511195086965) rotate(0 -45.90478374800614 56.740125764728305)"><path d="M-69.49 101.67 C-78.23 107.59, -83.66 111.23, -90.94 114.52 M-69.49 101.67 C-75.67 104.82, -81.32 109.68, -90.94 114.52" stroke="#f08c00" stroke-width="1" fill="none"></path></g></g><mask></mask><g transform="translate(591.3333263807299 440.6140773097734) rotate(0 167.32791137695312 50)"><text x="0" y="14.016" font-family="Virgil, Segoe UI Emoji" font-size="16px" fill="#1e1e1e" text-anchor="start" style="white-space: pre;" direction="ltr" dominant-baseline="alphabetic">Deleting one of the two hard links</text><text x="0" y="34.016" font-family="Virgil, Segoe UI Emoji" font-size="16px" fill="#1e1e1e" text-anchor="start" style="white-space: pre;" direction="ltr" dominant-baseline="alphabetic">will not cause a deletion of the other file</text><text x="0" y="54.016" font-family="Virgil, Segoe UI Emoji" font-size="16px" fill="#1e1e1e" text-anchor="start" style="white-space: pre;" direction="ltr" dominant-baseline="alphabetic">because the Inode still exists and has </text><text x="0" y="74.016" font-family="Virgil, Segoe UI Emoji" font-size="16px" fill="#1e1e1e" text-anchor="start" style="white-space: pre;" direction="ltr" dominant-baseline="alphabetic">one hard link. If the Inode has 0 links</text><text x="0" y="94.016" font-family="Virgil, Segoe UI Emoji" font-size="16px" fill="#1e1e1e" text-anchor="start" style="white-space: pre;" direction="ltr" dominant-baseline="alphabetic">it will be erased from the disk</text></g><g stroke-linecap="round"><g transform="translate(131.88523199912424 203.0263882123326) rotate(0 18.295322891596243 0)"><path d="M-0.36 0.35 C5.76 0.22, 30.88 -0.32, 36.97 -0.34 M0.46 0.05 C6.52 -0.05, 30.6 0.32, 36.73 0.18" stroke="#1e1e1e" stroke-width="1" fill="none"></path></g></g><mask></mask><g stroke-linecap="round"><g transform="translate(132.51145242471011 213.95132709904001) rotate(0 18.295322891596243 0)"><path d="M0.27 -0.34 C6.27 -0.34, 30.17 -0.42, 36.19 -0.41 M-0.26 0.67 C5.9 0.77, 31.18 0.17, 37.22 0.08" stroke="#1e1e1e" stroke-width="1" fill="none"></path></g></g><mask></mask><g stroke-linecap="round"><g transform="translate(133.73391339863565 223.72771077420762) rotate(0 18.295322891596243 0)"><path d="M0 -0.31 C6.12 -0.36, 30.46 -0.12, 36.53 -0.1 M-0.67 0.72 C5.39 0.74, 29.95 0.61, 36.06 0.55" stroke="#1e1e1e" stroke-width="1" fill="none"></path></g></g><mask></mask><g stroke-linecap="round"><g transform="translate(422.8811188270515 196.6802562502485) rotate(0 18.295322891596243 0)"><path d="M-0.06 0.01 C5.95 -0.12, 29.93 -0.33, 36.13 -0.25 M-0.75 -0.46 C5.41 -0.28, 30.82 0.3, 37.12 0.32" stroke="#1e1e1e" stroke-width="1" fill="none"></path></g></g><mask></mask><g stroke-linecap="round"><g transform="translate(423.50733925263694 207.60519513695593) rotate(0 18.295322891596243 0)"><path d="M-0.46 -0.25 C5.73 -0.18, 31.01 0.52, 37.13 0.48 M0.3 0.81 C6.48 0.74, 30.79 -0.08, 36.97 -0.25" stroke="#1e1e1e" stroke-width="1" fill="none"></path></g></g><mask></mask><g stroke-linecap="round"><g transform="translate(424.72980022656293 217.38157881212354) rotate(0 18.295322891596243 0)"><path d="M0.54 0.48 C6.66 0.43, 30.31 -0.49, 36.26 -0.54 M0.15 0.24 C6.48 0.26, 31.12 0.06, 37.33 -0.12" stroke="#1e1e1e" stroke-width="1" fill="none"></path></g></g><mask></mask><g transform="translate(10 1017.8106767294573) rotate(0 297.9438171386719 60)"><text x="0" y="14.016" font-family="Virgil, Segoe UI Emoji" font-size="16px" fill="#1e1e1e" text-anchor="start" style="white-space: pre;" direction="ltr" dominant-baseline="alphabetic">Limitations:</text><text x="0" y="34.016" font-family="Virgil, Segoe UI Emoji" font-size="16px" fill="#1e1e1e" text-anchor="start" style="white-space: pre;" direction="ltr" dominant-baseline="alphabetic">    - you can only hard link files, not dirs</text><text x="0" y="54.016" font-family="Virgil, Segoe UI Emoji" font-size="16px" fill="#1e1e1e" text-anchor="start" style="white-space: pre;" direction="ltr" dominant-baseline="alphabetic">    - hard links between files work only on same file systems</text><text x="0" y="74.016" font-family="Virgil, Segoe UI Emoji" font-size="16px" fill="#1e1e1e" text-anchor="start" style="white-space: pre;" direction="ltr" dominant-baseline="alphabetic">    - if you change permission of a file all other files that are hard linked</text><text x="0" y="94.016" font-family="Virgil, Segoe UI Emoji" font-size="16px" fill="#1e1e1e" text-anchor="start" style="white-space: pre;" direction="ltr" dominant-baseline="alphabetic">        will also have those permissions, because the Inode store the </text><text x="0" y="114.016" font-family="Virgil, Segoe UI Emoji" font-size="16px" fill="#1e1e1e" text-anchor="start" style="white-space: pre;" direction="ltr" dominant-baseline="alphabetic">        information about permissions</text></g></svg>