<svg version="1.1" xmlns="http://www.w3.org/2000/svg" viewBox="0 0 617.9830445226016 1138.6711311929516" width="617.9830445226016" height="1138.6711311929516">
  <!-- svg-source:excalidraw -->
  
  <defs>
    <style class="style-fonts">
      @font-face {
        font-family: "Virgil";
        src: url("https://excalidraw.com/Virgil.woff2");
      }
      @font-face {
        font-family: "Cascadia";
        src: url("https://excalidraw.com/Cascadia.woff2");
      }
      @font-face {
        font-family: "Assistant";
        src: url("https://excalidraw.com/Assistant-Regular.woff2");
      }
    </style>
    
  </defs>
  <rect x="0" y="0" width="617.9830445226016" height="1138.6711311929516" fill="#ffffff"></rect><g transform="translate(248.48319430085485 125.79944548434437) rotate(0 88.4599380493164 12.5)"><text x="0" y="17.52" font-family="Virgil, Segoe UI Emoji" font-size="20px" fill="#1971c2" text-anchor="start" style="white-space: pre;" direction="ltr" dominant-baseline="alphabetic">- r - - r w - - - -</text></g><g stroke-linecap="round" transform="translate(263.82704106735036 144.99248653053647) rotate(0 26.322054393343933 25)"><path d="M12.5 0 C18.68 -0.05, 25.96 -0.68, 40.14 0 M12.5 0 C19.65 0.09, 27.01 0.65, 40.14 0 M40.14 0 C49.16 -0.51, 53.6 6.12, 52.64 12.5 M40.14 0 C50.12 0.47, 54.52 5.24, 52.64 12.5 M52.64 12.5 C52.08 19.3, 50.69 26.36, 52.64 37.5 M52.64 12.5 C51.63 19.11, 52.79 27, 52.64 37.5 M52.64 37.5 C52.52 45.82, 48.38 49.54, 40.14 50 M52.64 37.5 C52.72 45.9, 47.5 51.67, 40.14 50 M40.14 50 C29.99 50.11, 21.56 51.38, 12.5 50 M40.14 50 C30.29 50.86, 18.73 49.96, 12.5 50 M12.5 50 C5.38 49.82, -1.32 47.71, 0 37.5 M12.5 50 C4.59 50.86, -1.39 44.34, 0 37.5 M0 37.5 C-1.08 29.97, 1.02 18.23, 0 12.5 M0 37.5 C-0.24 27.14, -0.49 18.67, 0 12.5 M0 12.5 C-1.17 4.76, 5.54 -1.04, 12.5 0 M0 12.5 C1.4 5.33, 5.35 2.28, 12.5 0" stroke="#1e1e1e" stroke-width="1" fill="none"></path></g><g transform="translate(269.2931079118662 159.99248653053647) rotate(0 20.855987548828125 10)"><text x="20.855987548828125" y="14.016" font-family="Virgil, Segoe UI Emoji" font-size="16px" fill="#1e1e1e" text-anchor="middle" style="white-space: pre;" direction="ltr" dominant-baseline="alphabetic">owner</text></g><g stroke-linecap="round" transform="translate(318.9476434052076 145.4162239036407) rotate(0 26.322054393343933 25)"><path d="M12.5 0 C19.78 1.68, 25.34 -1.66, 40.14 0 M12.5 0 C18.79 0.44, 23.3 0.33, 40.14 0 M40.14 0 C50.16 1.24, 53.02 2.47, 52.64 12.5 M40.14 0 C50.41 1.6, 52.34 2.67, 52.64 12.5 M52.64 12.5 C51.09 18.29, 53.69 24.48, 52.64 37.5 M52.64 12.5 C52.4 19.82, 52.35 28.32, 52.64 37.5 M52.64 37.5 C53.72 45.95, 50.3 49.78, 40.14 50 M52.64 37.5 C53.06 43.58, 46.77 52.07, 40.14 50 M40.14 50 C33.51 51.25, 25.32 50.81, 12.5 50 M40.14 50 C31.77 49.65, 24.54 50.45, 12.5 50 M12.5 50 C4.54 48.96, -0.16 46.86, 0 37.5 M12.5 50 C3.87 47.98, -2.1 46.59, 0 37.5 M0 37.5 C-1.68 29.47, 0.34 17.98, 0 12.5 M0 37.5 C0.29 31.92, -0.2 23.83, 0 12.5 M0 12.5 C-0.88 3.17, 5.36 1.18, 12.5 0 M0 12.5 C-2.27 6.32, 2.49 0.8, 12.5 0" stroke="#1e1e1e" stroke-width="1" fill="none"></path></g><g transform="translate(324.9017168415203 160.4162239036407) rotate(0 20.36798095703125 10)"><text x="20.36798095703125" y="14.016" font-family="Virgil, Segoe UI Emoji" font-size="16px" fill="#1e1e1e" text-anchor="middle" style="white-space: pre;" direction="ltr" dominant-baseline="alphabetic">group</text></g><g stroke-linecap="round" transform="translate(375.61171613416263 144.6143738178536) rotate(0 26.322054393343933 25)"><path d="M12.5 0 C20.63 0.7, 26.43 -0.8, 40.14 0 M12.5 0 C18.75 0.78, 24.33 -0.12, 40.14 0 M40.14 0 C47.45 -0.6, 51.4 5.57, 52.64 12.5 M40.14 0 C49.94 0.23, 54.33 3.89, 52.64 12.5 M52.64 12.5 C51.01 20.15, 52.31 24.22, 52.64 37.5 M52.64 12.5 C51.95 17.35, 53.64 23.04, 52.64 37.5 M52.64 37.5 C53.35 44.66, 48.8 50.69, 40.14 50 M52.64 37.5 C51.39 46.38, 49.39 49.8, 40.14 50 M40.14 50 C34.02 49.42, 26.93 50.03, 12.5 50 M40.14 50 C31.58 49.97, 21.19 50.41, 12.5 50 M12.5 50 C5.19 48.67, -1.58 46.22, 0 37.5 M12.5 50 C2.51 48.38, 1.87 47.24, 0 37.5 M0 37.5 C-0.29 28.63, 0.53 18.91, 0 12.5 M0 37.5 C0.46 30.95, -0.58 23.02, 0 12.5 M0 12.5 C-1.36 5.09, 3.02 -0.32, 12.5 0 M0 12.5 C2.24 3.25, 4.62 0.26, 12.5 0" stroke="#1e1e1e" stroke-width="1" fill="none"></path></g><g transform="translate(381.2137845655925 159.6143738178536) rotate(0 20.719985961914062 10)"><text x="20.719985961914062" y="14.016" font-family="Virgil, Segoe UI Emoji" font-size="16px" fill="#1e1e1e" text-anchor="middle" style="white-space: pre;" direction="ltr" dominant-baseline="alphabetic">other</text></g><g stroke-linecap="round"><g transform="translate(318.8086449675757 118.02868496554973) rotate(0 0.11224920999029564 56.535694682443506)"><path d="M0.48 1 C0.33 19.72, -0.81 93.98, -0.99 112.59 M-0.73 0.48 C-0.51 18.86, 1.36 92.57, 1.2 110.97" stroke="#1e1e1e" stroke-width="1" fill="none"></path></g></g><mask></mask><g stroke-linecap="round"><g transform="translate(373.4894849530383 119.31594576676346) rotate(0 -0.10160474069380143 55.31688168017965)"><path d="M0.97 0.05 C0.75 18.62, -1.13 91.96, -1.18 110.26 M0.03 -0.97 C0.14 17.87, 0.88 92.98, 0.92 111.61" stroke="#1e1e1e" stroke-width="1" fill="none"></path></g></g><mask></mask><g transform="translate(285.13094136451855 203.29207742091214) rotate(0 4.543998718261719 10)"><text x="0" y="14.016" font-family="Virgil, Segoe UI Emoji" font-size="16px" fill="#1e1e1e" text-anchor="start" style="white-space: pre;" direction="ltr" dominant-baseline="alphabetic">u</text></g><g transform="translate(343.66581606150794 202.1124283645702) rotate(0 4.00799560546875 10)"><text x="0" y="14.016" font-family="Virgil, Segoe UI Emoji" font-size="16px" fill="#1e1e1e" text-anchor="start" style="white-space: pre;" direction="ltr" dominant-baseline="alphabetic">g</text></g><g transform="translate(397.1239248362508 203.1815618122865) rotate(0 4.431999206542969 10)"><text x="0" y="14.016" font-family="Virgil, Segoe UI Emoji" font-size="16px" fill="#1e1e1e" text-anchor="start" style="white-space: pre;" direction="ltr" dominant-baseline="alphabetic">o</text></g><g stroke-linecap="round"><g transform="translate(262.56688975248926 120.1177958525507) rotate(0 0.286899305789575 54.00899764131702)"><path d="M0.89 0.63 C0.67 18.28, -0.63 89, -0.86 106.51 M-0.1 -0.09 C0.01 17.73, 1.63 90.33, 1.41 108.11" stroke="#1e1e1e" stroke-width="1" fill="none"></path></g></g><mask></mask><g transform="translate(172.35615845434495 46.83765438886854) rotate(0 212.60781860351562 10)"><text x="0" y="14.016" font-family="Virgil, Segoe UI Emoji" font-size="16px" fill="#1e1e1e" text-anchor="start" style="white-space: pre;" direction="ltr" dominant-baseline="alphabetic">-rwxrwxrwx 1 fwilms fwilms   91 Mar 26 17:00 script.sh</text></g><g transform="translate(161.05044653833465 10) rotate(0 26.26397705078125 10)"><text x="0" y="14.016" font-family="Virgil, Segoe UI Emoji" font-size="16px" fill="#1e1e1e" text-anchor="start" style="white-space: pre;" direction="ltr" dominant-baseline="alphabetic">$ ls -l</text></g><g stroke-linecap="round" transform="translate(163.7278960033882 45.855872337847075) rotate(0 49.403906129623465 11.664811169494413)"><path d="M5.83 0 C40.21 -1.97, 73.99 0.74, 92.98 0 M5.83 0 C36.71 -0.19, 67.61 0.05, 92.98 0 M92.98 0 C98.13 0.46, 99.65 2.55, 98.81 5.83 M92.98 0 C96.56 1.55, 97.88 0.75, 98.81 5.83 M98.81 5.83 C97.97 10.36, 98.61 13.52, 98.81 17.5 M98.81 5.83 C98.86 10.12, 98.7 14.24, 98.81 17.5 M98.81 17.5 C98.71 23.17, 96.1 23.5, 92.98 23.33 M98.81 17.5 C100.66 21.66, 95.5 23.46, 92.98 23.33 M92.98 23.33 C68.46 23.56, 41.25 23.37, 5.83 23.33 M92.98 23.33 C58.61 23.75, 26.19 23.32, 5.83 23.33 M5.83 23.33 C3 22.99, 0.83 23.14, 0 17.5 M5.83 23.33 C0.16 24.47, 0.98 23.41, 0 17.5 M0 17.5 C0.79 13.72, -0.9 10.24, 0 5.83 M0 17.5 C0.46 14.06, 0.24 11.34, 0 5.83 M0 5.83 C-0.22 2.32, 1.71 -0.31, 5.83 0 M0 5.83 C-0.34 2.85, 2.22 0.86, 5.83 0" stroke="#1971c2" stroke-width="1" fill="none"></path></g><g stroke-linecap="round"><g transform="translate(178.92299429094328 77.21302313484335) rotate(0 0.3553929085205709 31.3073191380835)"><path d="M1.01 0.88 C0.97 11.06, 0.48 50.96, 0.43 61.27 M0.09 0.29 C-0.14 10.59, -0.34 52.27, -0.3 62.32" stroke="#1971c2" stroke-width="1" fill="none"></path></g></g><mask></mask><g stroke-linecap="round"><g transform="translate(179.95948476434023 140.4389420120194) rotate(0 15.560704310962137 -0.042726536607375465)"><path d="M0.46 0.42 C5.61 0.27, 26.14 -0.49, 31.09 -0.51 M0.04 0.17 C5.14 0.03, 25.71 0.05, 30.92 -0.07" stroke="#1971c2" stroke-width="1" fill="none"></path></g></g><mask></mask><g stroke-linecap="round"><g transform="translate(280.4990606837837 68.20157499262348) rotate(0 18.976984941511546 -0.03317196211152407)"><path d="M-0.23 0.41 C6.05 0.54, 31.81 0.3, 38.19 0.29 M0.65 0.15 C6.81 0.16, 31.53 -0.41, 37.67 -0.52" stroke="#e03131" stroke-width="1" fill="none"></path></g></g><mask></mask><g stroke-linecap="round"><g transform="translate(330.4058961639503 68.59450913225965) rotate(0 19.272869977207392 0.21961562183535932)"><path d="M-0.26 -0.39 C6.04 -0.38, 31.39 0.06, 37.83 0.07 M0.61 0.6 C7.06 0.71, 32.56 0.88, 38.8 0.81" stroke="#2f9e44" stroke-width="1" fill="none"></path></g></g><mask></mask><g stroke-linecap="round"><g transform="translate(348.66804927698195 73.93236747794447) rotate(0 -2.41720479833657 21.63031652149246)"><path d="M0.46 -0.26 C-0.34 6.94, -3.87 35.78, -4.83 43 M0.03 0.8 C-0.85 8.08, -4.59 36.4, -5.29 43.52" stroke="#2f9e44" stroke-width="1" fill="none"></path></g></g><mask></mask><g stroke-linecap="round"><g transform="translate(299.74039313363573 75.37141618804284) rotate(0 -5.607681576187588 22.71160501282945)"><path d="M0.4 -0.26 C-1.43 7.27, -9.2 38.17, -11.05 45.68 M-0.05 0.8 C-1.97 8.4, -9.78 37.5, -11.62 44.89" stroke="#e03131" stroke-width="1" fill="none"></path></g></g><mask></mask><g stroke-linecap="round" transform="translate(243.18693971491666 129.22454607862025) rotate(0 8.477037802092582 9.112815637249327)"><path d="M4.24 0 C8.03 0.47, 10.43 0.12, 12.72 0 M4.24 0 C7.6 -0.07, 11.11 0.25, 12.72 0 M12.72 0 C17.12 -0.29, 18.59 1.74, 16.95 4.24 M12.72 0 C16.25 1.34, 17.89 -0.39, 16.95 4.24 M16.95 4.24 C17.86 5.33, 17.41 8, 16.95 13.99 M16.95 4.24 C16.84 7.29, 16.48 10.7, 16.95 13.99 M16.95 13.99 C15.45 16.18, 13.81 18.9, 12.72 18.23 M16.95 13.99 C15.07 17.52, 17.42 17.34, 12.72 18.23 M12.72 18.23 C10.94 17.84, 9.73 18.63, 4.24 18.23 M12.72 18.23 C9.77 18.3, 6.03 18.36, 4.24 18.23 M4.24 18.23 C1.58 19.02, 0.89 17.53, 0 13.99 M4.24 18.23 C1.9 15.96, -1.41 18.04, 0 13.99 M0 13.99 C-0.23 12.58, -0.44 9.55, 0 4.24 M0 13.99 C0.25 11.93, 0.05 9.62, 0 4.24 M0 4.24 C1.83 2.53, 3.26 -0.4, 4.24 0 M0 4.24 C0.53 3.04, 3.01 1.85, 4.24 0" stroke="#f08c00" stroke-width="1" fill="none"></path></g><g stroke-linecap="round"><g transform="translate(244.0974863783831 150.6159963810401) rotate(0 -8.589600572144718 36.5743673423722)"><path d="M1.16 -0.63 C-1.7 11.54, -14.37 60.3, -17.55 72.66 M0.3 1.66 C-2.64 13.99, -15.16 61.58, -18.34 73.78" stroke="#f08c00" stroke-width="1" fill="none"></path></g></g><mask></mask><g transform="translate(83.70392919384994 230.56319838756357) rotate(0 88.07994842529297 10)"><text x="0" y="14.016" font-family="Virgil, Segoe UI Emoji" font-size="16px" fill="#f08c00" text-anchor="start" style="white-space: pre;" direction="ltr" dominant-baseline="alphabetic">File Type    Identifier</text></g><g transform="translate(75.59182338267965 254.5994841496889) rotate(0 48.35997009277344 10)"><text x="0" y="14.016" font-family="Virgil, Segoe UI Emoji" font-size="16px" fill="#f08c00" text-anchor="start" style="white-space: pre;" direction="ltr" dominant-baseline="alphabetic">DIRECTORY</text></g><g transform="translate(50.35543344824691 277.72209263489685) rotate(0 61.439964294433594 10)"><text x="0" y="14.016" font-family="Virgil, Segoe UI Emoji" font-size="16px" fill="#f08c00" text-anchor="start" style="white-space: pre;" direction="ltr" dominant-baseline="alphabetic">REGULAR FILE</text></g><g transform="translate(10 302.5055252670262) rotate(0 82.55193328857422 10)"><text x="0" y="14.016" font-family="Virgil, Segoe UI Emoji" font-size="16px" fill="#f08c00" text-anchor="start" style="white-space: pre;" direction="ltr" dominant-baseline="alphabetic">CHARACTER DEVICE</text></g><g transform="translate(135.03529248190898 324.8809866724856) rotate(0 19.207984924316406 10)"><text x="0" y="14.016" font-family="Virgil, Segoe UI Emoji" font-size="16px" fill="#f08c00" text-anchor="start" style="white-space: pre;" direction="ltr" dominant-baseline="alphabetic">LINK</text></g><g transform="translate(51.26248219890749 349.1994841082478) rotate(0 61.07997131347656 10)"><text x="0" y="14.016" font-family="Virgil, Segoe UI Emoji" font-size="16px" fill="#f08c00" text-anchor="start" style="white-space: pre;" direction="ltr" dominant-baseline="alphabetic">SEOCKET FILE</text></g><g transform="translate(132.73397853170627 372.8597055536254) rotate(0 20.327980041503906 10)"><text x="0" y="14.016" font-family="Virgil, Segoe UI Emoji" font-size="16px" fill="#f08c00" text-anchor="start" style="white-space: pre;" direction="ltr" dominant-baseline="alphabetic">PIPE</text></g><g transform="translate(29.184985573422637 399.3905967066612) rotate(0 71.95995330810547 10)"><text x="0" y="14.016" font-family="Virgil, Segoe UI Emoji" font-size="16px" fill="#f08c00" text-anchor="start" style="white-space: pre;" direction="ltr" dominant-baseline="alphabetic">BLOCKER DEVICE</text></g><g stroke-linecap="round"><g transform="translate(56.41991988051086 250.91572413983843) rotate(0 108.89419077278762 0.06163898594678585)"><path d="M0.45 1.07 C36.53 0.97, 180.24 -0.76, 216.23 -0.94 M-0.78 0.58 C35.71 0.65, 182.55 -0.02, 218.57 0.1" stroke="#f08c00" stroke-width="1" fill="none"></path></g></g><mask></mask><g stroke-linecap="round"><g transform="translate(182.0089460075951 229.07415437860638) rotate(0 0.07645254023373127 109.6292288205702)"><path d="M-1.03 0.89 C-1 37.17, 1.1 181.44, 1.19 217.42 M0.62 0.3 C0.52 36.82, 1.23 182.71, 0.86 218.95" stroke="#f08c00" stroke-width="1" fill="none"></path></g></g><mask></mask><g transform="translate(198.60893245090665 258.9780550932644) rotate(0 4.551994323730469 10)"><text x="0" y="14.016" font-family="Virgil, Segoe UI Emoji" font-size="16px" fill="#f08c00" text-anchor="start" style="white-space: pre;" direction="ltr" dominant-baseline="alphabetic">d</text></g><g transform="translate(200.41944349236928 278.8936765493539) rotate(0 3.287994384765625 10)"><text x="0" y="14.016" font-family="Virgil, Segoe UI Emoji" font-size="16px" fill="#f08c00" text-anchor="start" style="white-space: pre;" direction="ltr" dominant-baseline="alphabetic">-</text></g><g transform="translate(201.11457339882054 298.9481598376344) rotate(0 4.015998840332031 10)"><text x="0" y="14.016" font-family="Virgil, Segoe UI Emoji" font-size="16px" fill="#f08c00" text-anchor="start" style="white-space: pre;" direction="ltr" dominant-baseline="alphabetic">c</text></g><g transform="translate(201.9061668923623 325.38162104298965) rotate(0 2.1039962768554688 10)"><text x="0" y="14.016" font-family="Virgil, Segoe UI Emoji" font-size="16px" fill="#f08c00" text-anchor="start" style="white-space: pre;" direction="ltr" dominant-baseline="alphabetic">l</text></g><g transform="translate(200.04257480263004 350.36667341517466) rotate(0 4.343994140625 10.000000000000028)"><text x="0" y="14.016" font-family="Virgil, Segoe UI Emoji" font-size="16px" fill="#f08c00" text-anchor="start" style="white-space: pre;" direction="ltr" dominant-baseline="alphabetic">s</text></g><g transform="translate(202.59328910100976 373.5412147458968) rotate(0 3.9439926147460938 10)"><text x="0" y="14.016" font-family="Virgil, Segoe UI Emoji" font-size="16px" fill="#f08c00" text-anchor="start" style="white-space: pre;" direction="ltr" dominant-baseline="alphabetic">p</text></g><g transform="translate(201.90698400201018 401.78518699271456) rotate(0 4.063995361328125 10)"><text x="0" y="14.016" font-family="Virgil, Segoe UI Emoji" font-size="16px" fill="#f08c00" text-anchor="start" style="white-space: pre;" direction="ltr" dominant-baseline="alphabetic">b</text></g><g transform="translate(81.13080168634315 83.0397141530648) rotate(0 42.87196350097656 20)"><text x="0" y="14.016" font-family="Virgil, Segoe UI Emoji" font-size="16px" fill="#1971c2" text-anchor="start" style="white-space: pre;" direction="ltr" dominant-baseline="alphabetic">Permissions</text><text x="0" y="34.016" font-family="Virgil, Segoe UI Emoji" font-size="16px" fill="#1971c2" text-anchor="start" style="white-space: pre;" direction="ltr" dominant-baseline="alphabetic">    (file)</text></g><g transform="translate(86.20627863362733 122.47302011978368) rotate(0 65.34394836425781 40)"><text x="0" y="14.016" font-family="Virgil, Segoe UI Emoji" font-size="16px" fill="#1971c2" text-anchor="start" style="white-space: pre;" direction="ltr" dominant-baseline="alphabetic">r - read</text><text x="0" y="34.016" font-family="Virgil, Segoe UI Emoji" font-size="16px" fill="#1971c2" text-anchor="start" style="white-space: pre;" direction="ltr" dominant-baseline="alphabetic">w - write</text><text x="0" y="54.016" font-family="Virgil, Segoe UI Emoji" font-size="16px" fill="#1971c2" text-anchor="start" style="white-space: pre;" direction="ltr" dominant-baseline="alphabetic">x - execute</text><text x="0" y="74.016" font-family="Virgil, Segoe UI Emoji" font-size="16px" fill="#1971c2" text-anchor="start" style="white-space: pre;" direction="ltr" dominant-baseline="alphabetic">- - No permission</text></g><g transform="translate(475.916396627159 125.384552127597) rotate(0 42.87196350097656 20)"><text x="0" y="14.016" font-family="Virgil, Segoe UI Emoji" font-size="16px" fill="#1971c2" text-anchor="start" style="white-space: pre;" direction="ltr" dominant-baseline="alphabetic">Permissions</text><text x="0" y="34.016" font-family="Virgil, Segoe UI Emoji" font-size="16px" fill="#1971c2" text-anchor="start" style="white-space: pre;" direction="ltr" dominant-baseline="alphabetic">    (dir)</text></g><g transform="translate(477.295147794086 170.7326193428863) rotate(0 65.34394836425781 40)"><text x="0" y="14.016" font-family="Virgil, Segoe UI Emoji" font-size="16px" fill="#1971c2" text-anchor="start" style="white-space: pre;" direction="ltr" dominant-baseline="alphabetic">r - read dir</text><text x="0" y="34.016" font-family="Virgil, Segoe UI Emoji" font-size="16px" fill="#1971c2" text-anchor="start" style="white-space: pre;" direction="ltr" dominant-baseline="alphabetic">w - write to dir</text><text x="0" y="54.016" font-family="Virgil, Segoe UI Emoji" font-size="16px" fill="#1971c2" text-anchor="start" style="white-space: pre;" direction="ltr" dominant-baseline="alphabetic">x - execute into</text><text x="0" y="74.016" font-family="Virgil, Segoe UI Emoji" font-size="16px" fill="#1971c2" text-anchor="start" style="white-space: pre;" direction="ltr" dominant-baseline="alphabetic">- - No permission</text></g><g transform="translate(345.1118031437509 324.1103208582489) rotate(0 88.4599380493164 12.5)"><text x="0" y="17.52" font-family="Virgil, Segoe UI Emoji" font-size="20px" fill="#1971c2" text-anchor="start" style="white-space: pre;" direction="ltr" dominant-baseline="alphabetic">- r - - r w - - - -</text></g><g stroke-linecap="round"><g transform="translate(522.0316783189928 364.1402188798304) rotate(0 0.15698242969847342 -0.18148966341590267)"><path d="M0.26 -0.02 C0.35 -0.04, 0.39 -0.37, 0.32 -0.31 M-0.04 -0.34 C0.06 -0.3, 0.27 -0.04, 0.2 -0.02" stroke="#1e1e1e" stroke-width="1" fill="none"></path></g><g transform="translate(522.0316783189928 364.1402188798304) rotate(0 0.15698242969847342 -0.18148966341590267)"><path d="M0.03 -0.41 L0.35 0.46 L0.72 -0.16 L0.11 -0.08" stroke="none" stroke-width="0" fill="#1e1e1e" fill-rule="evenodd"></path><path d="M0.2 -0.02 C0.2 -0.02, 0.2 -0.02, 0.2 -0.02 M0.2 -0.02 C0.2 -0.02, 0.2 -0.02, 0.2 -0.02 M0.2 -0.02 C0.2 -0.02, 0.2 -0.02, 0.2 -0.02 M0.2 -0.02 C0.2 -0.02, 0.2 -0.02, 0.2 -0.02 M0.2 -0.02 C0.2 -0.02, 0.2 -0.02, 0.2 -0.02 M0.2 -0.02 C0.2 -0.02, 0.2 -0.02, 0.2 -0.02 M0.2 -0.02 C0.2 -0.02, 0.2 -0.02, 0.2 -0.02 M0.2 -0.02 C0.2 -0.02, 0.2 -0.02, 0.2 -0.02" stroke="#1e1e1e" stroke-width="1" fill="none"></path></g></g><mask></mask><g stroke-linecap="round"><g transform="translate(356.3056035873169 365.50683498426986) rotate(0 70.80565617492675 0.759159081112557)"><path d="M1.09 0.67 C24.86 0.82, 118.17 0.08, 141.41 0.01 M0.21 -0.03 C23.98 0.42, 117.61 1.27, 140.86 1.55" stroke="#1e1e1e" stroke-width="1" fill="none"></path></g></g><mask></mask><g transform="translate(325.17967829875124 376.59469368925295) rotate(0 107.35193634033203 20)"><text x="0" y="14.016" font-family="Virgil, Segoe UI Emoji" font-size="16px" fill="#1e1e1e" text-anchor="start" style="white-space: pre;" direction="ltr" dominant-baseline="alphabetic">Permissions are evaluated </text><text x="0" y="34.016" font-family="Virgil, Segoe UI Emoji" font-size="16px" fill="#1e1e1e" text-anchor="start" style="white-space: pre;" direction="ltr" dominant-baseline="alphabetic">from left to right</text></g><g transform="translate(322.1202649734878 425.6373149959485) rotate(0 125.64791870117188 30)"><text x="0" y="14.016" font-family="Virgil, Segoe UI Emoji" font-size="16px" fill="#1e1e1e" text-anchor="start" style="white-space: pre;" direction="ltr" dominant-baseline="alphabetic">user can not write even tho</text><text x="0" y="34.016" font-family="Virgil, Segoe UI Emoji" font-size="16px" fill="#1e1e1e" text-anchor="start" style="white-space: pre;" direction="ltr" dominant-baseline="alphabetic">he is part of a group that has</text><text x="0" y="54.016" font-family="Virgil, Segoe UI Emoji" font-size="16px" fill="#1e1e1e" text-anchor="start" style="white-space: pre;" direction="ltr" dominant-baseline="alphabetic">permissions to write</text></g><g transform="translate(126.32255341470409 568.4462397838929) rotate(0 172.8719482421875 30)"><text x="0" y="14.016" font-family="Virgil, Segoe UI Emoji" font-size="16px" fill="#1e1e1e" text-anchor="start" style="white-space: pre;" direction="ltr" dominant-baseline="alphabetic">user         u+        u+w / u+rw / u+rwx</text><text x="0" y="34.016" font-family="Virgil, Segoe UI Emoji" font-size="16px" fill="#1e1e1e" text-anchor="start" style="white-space: pre;" direction="ltr" dominant-baseline="alphabetic">group        g+        g+w / g+rw / g+rwx</text><text x="0" y="54.016" font-family="Virgil, Segoe UI Emoji" font-size="16px" fill="#1e1e1e" text-anchor="start" style="white-space: pre;" direction="ltr" dominant-baseline="alphabetic">other        o+        o+w / o+rw / o+rwx</text></g><g transform="translate(220.13219545803804 542.515119219069) rotate(0 24.191986083984375 10)"><text x="0" y="14.016" font-family="Virgil, Segoe UI Emoji" font-size="16px" fill="#1e1e1e" text-anchor="start" style="white-space: pre;" direction="ltr" dominant-baseline="alphabetic">Option</text></g><g transform="translate(367.5432131118587 541.6672794184185) rotate(0 35.05596923828125 10)"><text x="0" y="14.016" font-family="Virgil, Segoe UI Emoji" font-size="16px" fill="#1e1e1e" text-anchor="start" style="white-space: pre;" direction="ltr" dominant-baseline="alphabetic">Examples</text></g><g stroke-linecap="round"><g transform="translate(490.120921338852 565.3955197174431) rotate(0 -193.27392376064608 0.11402707323435379)"><path d="M0.84 -0.8 C-63.68 -0.63, -321.95 0.38, -386.26 0.63 M-0.18 1.39 C-64.97 1.25, -323.2 -0.72, -387.39 -1.16" stroke="#1e1e1e" stroke-width="1" fill="none"></path></g></g><mask></mask><g stroke-linecap="round"><g transform="translate(201.82787505933902 548.6165593519687) rotate(0 0.4544108171762673 46.245356904444634)"><path d="M-0.34 0.94 C-0.25 16.24, 0.12 75.69, 0.11 90.9 M1.68 0.38 C1.66 15.92, -0.27 77.13, -0.77 92.11" stroke="#1e1e1e" stroke-width="1" fill="none"></path></g></g><mask></mask><g stroke-linecap="round"><g transform="translate(291.3697062024348 545.8439633944349) rotate(0 0.22594106767337507 45.616829970059314)"><path d="M0.66 -0.5 C0.94 14.66, 0.82 76.22, 0.9 91.51 M-0.45 -1.8 C-0.18 13.51, 0.19 77.33, 0.43 93.04" stroke="#1e1e1e" stroke-width="1" fill="none"></path></g></g><mask></mask><g transform="translate(99.28636493843442 515.005045476038) rotate(0 70.71994018554688 10)"><text x="0" y="14.016" font-family="Virgil, Segoe UI Emoji" font-size="16px" fill="#1e1e1e" text-anchor="start" style="white-space: pre;" direction="ltr" dominant-baseline="alphabetic">Adding Permissions</text></g><g transform="translate(124.58637122206801 718.5546785766509) rotate(0 166.02392578125 30)"><text x="0" y="14.016" font-family="Virgil, Segoe UI Emoji" font-size="16px" fill="#1e1e1e" text-anchor="start" style="white-space: pre;" direction="ltr" dominant-baseline="alphabetic">user         u-        u-w / u-rw / u-rwx</text><text x="0" y="34.016" font-family="Virgil, Segoe UI Emoji" font-size="16px" fill="#1e1e1e" text-anchor="start" style="white-space: pre;" direction="ltr" dominant-baseline="alphabetic">group        g-        g-w / g-rw / g-rwx</text><text x="0" y="54.016" font-family="Virgil, Segoe UI Emoji" font-size="16px" fill="#1e1e1e" text-anchor="start" style="white-space: pre;" direction="ltr" dominant-baseline="alphabetic">other        o-        o-w / o-rw / o-rwx</text></g><g transform="translate(218.39601326540014 692.623558011827) rotate(0 24.191986083984375 10)"><text x="0" y="14.016" font-family="Virgil, Segoe UI Emoji" font-size="16px" fill="#1e1e1e" text-anchor="start" style="white-space: pre;" direction="ltr" dominant-baseline="alphabetic">Option</text></g><g transform="translate(365.8070309192217 691.7757182111765) rotate(0 35.05596923828125 10)"><text x="0" y="14.016" font-family="Virgil, Segoe UI Emoji" font-size="16px" fill="#1e1e1e" text-anchor="start" style="white-space: pre;" direction="ltr" dominant-baseline="alphabetic">Examples</text></g><g stroke-linecap="round"><g transform="translate(488.3847391462159 715.5039585102012) rotate(0 -192.07457755571522 -0.49038185269296264)"><path d="M0.99 -0.06 C-63.15 -0.12, -320.41 0.36, -384.79 0.46 M0.05 -1.14 C-64.15 -1.64, -320.86 -1.35, -385.14 -1.42" stroke="#1e1e1e" stroke-width="1" fill="none"></path></g></g><mask></mask><g stroke-linecap="round"><g transform="translate(200.09169286670203 698.7249981447266) rotate(0 0.6070286683457198 45.84604672407676)"><path d="M1.13 0.46 C1.08 15.81, 0.94 76.89, 0.68 92.04 M0.26 -0.34 C0.03 14.65, 0.36 74.69, 0.08 90.18" stroke="#1e1e1e" stroke-width="1" fill="none"></path></g></g><mask></mask><g stroke-linecap="round"><g transform="translate(289.63352400979875 695.9524021871929) rotate(0 -0.4641395303888203 46.2736628322391)"><path d="M0.68 0.51 C0.42 15.66, -0.2 76.03, -0.43 91.36 M-0.43 -0.26 C-0.98 15.04, -1.37 77.66, -1.6 92.81" stroke="#1e1e1e" stroke-width="1" fill="none"></path></g></g><mask></mask><g transform="translate(97.55018274579652 662.7857964900488) rotate(0 79.84794616699219 10)"><text x="0" y="14.016" font-family="Virgil, Segoe UI Emoji" font-size="16px" fill="#1e1e1e" text-anchor="start" style="white-space: pre;" direction="ltr" dominant-baseline="alphabetic">Removing Permissions</text></g><g transform="translate(125.39461623663556 866.5481643884726) rotate(0 172.61593627929688 30)"><text x="0" y="14.016" font-family="Virgil, Segoe UI Emoji" font-size="16px" fill="#1e1e1e" text-anchor="start" style="white-space: pre;" direction="ltr" dominant-baseline="alphabetic">user         u=        u=w / u=rw / u=rwx</text><text x="0" y="34.016" font-family="Virgil, Segoe UI Emoji" font-size="16px" fill="#1e1e1e" text-anchor="start" style="white-space: pre;" direction="ltr" dominant-baseline="alphabetic">group        g=        g=w / g=rw / g=rwx</text><text x="0" y="54.016" font-family="Virgil, Segoe UI Emoji" font-size="16px" fill="#1e1e1e" text-anchor="start" style="white-space: pre;" direction="ltr" dominant-baseline="alphabetic">other        o=        o=w / o=rw / o=rwx</text></g><g transform="translate(219.2042582799677 840.6170438236485) rotate(0 24.191986083984375 10)"><text x="0" y="14.016" font-family="Virgil, Segoe UI Emoji" font-size="16px" fill="#1e1e1e" text-anchor="start" style="white-space: pre;" direction="ltr" dominant-baseline="alphabetic">Option</text></g><g transform="translate(366.61527593378923 839.769204022998) rotate(0 35.05596923828125 10)"><text x="0" y="14.016" font-family="Virgil, Segoe UI Emoji" font-size="16px" fill="#1e1e1e" text-anchor="start" style="white-space: pre;" direction="ltr" dominant-baseline="alphabetic">Examples</text></g><g stroke-linecap="round"><g transform="translate(489.19298416078345 863.497444322023) rotate(0 -193.2971884288204 0.35134669544987673)"><path d="M-1.05 0.11 C-65.48 -0.07, -322.09 -0.04, -386.13 0.02 M0.6 -0.88 C-64.05 -0.35, -322.81 1.69, -387.19 1.57" stroke="#1e1e1e" stroke-width="1" fill="none"></path></g></g><mask></mask><g stroke-linecap="round"><g transform="translate(200.89993788126958 846.7184839565483) rotate(0 -0.5686055048927301 45.51447431801762)"><path d="M-0.21 0.02 C0.07 15.34, 0.58 76.72, 0.65 92.04 M-1.79 -1.01 C-1.51 13.94, -0.18 75.05, 0.04 90.19" stroke="#1e1e1e" stroke-width="1" fill="none"></path></g></g><mask></mask><g stroke-linecap="round"><g transform="translate(290.4417690243663 843.9458879990146) rotate(0 0.004648399751204124 45.84263855203005)"><path d="M0.65 0.52 C0.72 15.84, 0.24 76.84, 0.21 91.94 M-0.47 -0.26 C-0.52 14.69, -0.7 74.63, -0.63 90.04" stroke="#1e1e1e" stroke-width="1" fill="none"></path></g></g><mask></mask><g transform="translate(98.35842776036407 810.7792823018705) rotate(0 60.6319580078125 10)"><text x="0" y="14.016" font-family="Virgil, Segoe UI Emoji" font-size="16px" fill="#1e1e1e" text-anchor="start" style="white-space: pre;" direction="ltr" dominant-baseline="alphabetic">Set Permissions</text></g><g transform="translate(104.55813531740023 1004.1219056814879) rotate(0 88.4599380493164 12.5)"><text x="0" y="17.52" font-family="Virgil, Segoe UI Emoji" font-size="20px" fill="#1971c2" text-anchor="start" style="white-space: pre;" direction="ltr" dominant-baseline="alphabetic">- r w - r - - - - -</text></g><g transform="translate(92.94477000512234 973.5265369569776) rotate(0 68.65595245361328 10)"><text x="0" y="14.016" font-family="Virgil, Segoe UI Emoji" font-size="16px" fill="#1e1e1e" text-anchor="start" style="white-space: pre;" direction="ltr" dominant-baseline="alphabetic">Octal Permissions</text></g><g stroke-linecap="round"><g transform="translate(118.10669416722612 1003.0636729665961) rotate(0 0 32.58353046708896)"><path d="M0 0 C0 10.86, 0 54.31, 0 65.17 M0 0 C0 10.86, 0 54.31, 0 65.17" stroke="#1e1e1e" stroke-width="1" fill="none"></path></g></g><mask></mask><g stroke-linecap="round"><g transform="translate(173.6635599636129 1002.5252458455938) rotate(0 0 32.58353046708896)"><path d="M0 0 C0 10.86, 0 54.31, 0 65.17 M0 0 C0 10.86, 0 54.31, 0 65.17" stroke="#1e1e1e" stroke-width="1" fill="none"></path></g></g><mask></mask><g stroke-linecap="round"><g transform="translate(231.92080432249986 1002.1825561728948) rotate(0 0 32.58353046708896)"><path d="M0 0 C0 10.86, 0 54.31, 0 65.17 M0 0 C0 10.86, 0 54.31, 0 65.17" stroke="#1e1e1e" stroke-width="1" fill="none"></path></g></g><mask></mask><g transform="translate(122.89867896598571 1027.8694415442164) rotate(0 2.167999267578125 10)"><text x="0" y="14.016" font-family="Virgil, Segoe UI Emoji" font-size="16px" fill="#1e1e1e" text-anchor="start" style="white-space: pre;" direction="ltr" dominant-baseline="alphabetic">1</text></g><g transform="translate(142.06314268932692 1027.937735369714) rotate(0 2.167999267578125 10)"><text x="0" y="14.016" font-family="Virgil, Segoe UI Emoji" font-size="16px" fill="#1e1e1e" text-anchor="start" style="white-space: pre;" direction="ltr" dominant-baseline="alphabetic">1</text></g><g transform="translate(160.96307634757886 1028.4102729581057) rotate(0 5.503997802734375 10)"><text x="0" y="14.016" font-family="Virgil, Segoe UI Emoji" font-size="16px" fill="#1e1e1e" text-anchor="start" style="white-space: pre;" direction="ltr" dominant-baseline="alphabetic">0</text></g><g transform="translate(182.38739617618012 1027.3236012788288) rotate(0 2.167999267578125 10)"><text x="0" y="14.016" font-family="Virgil, Segoe UI Emoji" font-size="16px" fill="#1e1e1e" text-anchor="start" style="white-space: pre;" direction="ltr" dominant-baseline="alphabetic">1</text></g><g transform="translate(197.94637162340496 1027.632620976759) rotate(0 5.503997802734375 10)"><text x="0" y="14.016" font-family="Virgil, Segoe UI Emoji" font-size="16px" fill="#1e1e1e" text-anchor="start" style="white-space: pre;" direction="ltr" dominant-baseline="alphabetic">0</text></g><g transform="translate(217.5334778767883 1027.9086726318205) rotate(0 5.503997802734375 10)"><text x="0" y="14.016" font-family="Virgil, Segoe UI Emoji" font-size="16px" fill="#1e1e1e" text-anchor="start" style="white-space: pre;" direction="ltr" dominant-baseline="alphabetic">0</text></g><g transform="translate(236.80122596878027 1026.9557868450881) rotate(0 5.503997802734375 10)"><text x="0" y="14.016" font-family="Virgil, Segoe UI Emoji" font-size="16px" fill="#1e1e1e" text-anchor="start" style="white-space: pre;" direction="ltr" dominant-baseline="alphabetic">0</text></g><g transform="translate(254.8272596935958 1027.112294042334) rotate(0 5.503997802734375 10)"><text x="0" y="14.016" font-family="Virgil, Segoe UI Emoji" font-size="16px" fill="#1e1e1e" text-anchor="start" style="white-space: pre;" direction="ltr" dominant-baseline="alphabetic">0</text></g><g transform="translate(273.0512896837736 1026.7217583038916) rotate(0 5.503997802734375 10)"><text x="0" y="14.016" font-family="Virgil, Segoe UI Emoji" font-size="16px" fill="#1e1e1e" text-anchor="start" style="white-space: pre;" direction="ltr" dominant-baseline="alphabetic">0</text></g><g stroke-linecap="round"><g transform="translate(99.695022437636 1025.321827298086) rotate(0 97.40515677009125 0)"><path d="M0 0 C32.47 0, 162.34 0, 194.81 0 M0 0 C32.47 0, 162.34 0, 194.81 0" stroke="#1e1e1e" stroke-width="1" fill="none"></path></g></g><mask></mask><g stroke-linecap="round"><g transform="translate(96.10073620995809 1046.8875446641575) rotate(0 97.40515677009125 0)"><path d="M0 0 C32.47 0, 162.34 0, 194.81 0 M0 0 C32.47 0, 162.34 0, 194.81 0" stroke="#1e1e1e" stroke-width="1" fill="none"></path></g></g><mask></mask><g transform="translate(140.3104568104054 1054.255831430899) rotate(0 5.1199951171875 10)"><text x="0" y="14.016" font-family="Virgil, Segoe UI Emoji" font-size="16px" fill="#1e1e1e" text-anchor="start" style="white-space: pre;" direction="ltr" dominant-baseline="alphabetic">6</text></g><g transform="translate(194.49618444991484 1053.780689934248) rotate(0 5.1199951171875 10)"><text x="0" y="14.016" font-family="Virgil, Segoe UI Emoji" font-size="16px" fill="#1e1e1e" text-anchor="start" style="white-space: pre;" direction="ltr" dominant-baseline="alphabetic">4</text></g><g transform="translate(256.5856162758082 1053.5369741853633) rotate(0 5.503997802734375 10)"><text x="0" y="14.016" font-family="Virgil, Segoe UI Emoji" font-size="16px" fill="#1e1e1e" text-anchor="start" style="white-space: pre;" direction="ltr" dominant-baseline="alphabetic">0</text></g><g transform="translate(363.12093037657905 985.6244397078016) rotate(0 38.52796936035156 10)"><text x="0" y="14.016" font-family="Virgil, Segoe UI Emoji" font-size="16px" fill="#1e1e1e" text-anchor="start" style="white-space: pre;" direction="ltr" dominant-baseline="alphabetic">Permission</text></g><g transform="translate(61.33819902369942 1024.182710323587) rotate(0 23.831985473632812 10)"><text x="0" y="14.016" font-family="Virgil, Segoe UI Emoji" font-size="16px" fill="#1e1e1e" text-anchor="start" style="white-space: pre;" direction="ltr" dominant-baseline="alphabetic">Binary</text></g><g transform="translate(54.47185262101084 1049.1422090152328) rotate(0 28.887985229492188 10)"><text x="0" y="14.016" font-family="Virgil, Segoe UI Emoji" font-size="16px" fill="#1e1e1e" text-anchor="start" style="white-space: pre;" direction="ltr" dominant-baseline="alphabetic">Decimal</text></g><g transform="translate(464.43095578280827 987.448976029976) rotate(0 20.495986938476562 10)"><text x="0" y="14.016" font-family="Virgil, Segoe UI Emoji" font-size="16px" fill="#1971c2" text-anchor="start" style="white-space: pre;" direction="ltr" dominant-baseline="alphabetic">Value</text></g><g transform="translate(394.99576741896 1007.7311815275183) rotate(0 3.4399948120117188 10)"><text x="0" y="14.016" font-family="Virgil, Segoe UI Emoji" font-size="16px" fill="#1e1e1e" text-anchor="start" style="white-space: pre;" direction="ltr" dominant-baseline="alphabetic">r</text></g><g transform="translate(393.4534365943291 1033.4366952713754) rotate(0 4.8719940185546875 10)"><text x="0" y="14.016" font-family="Virgil, Segoe UI Emoji" font-size="16px" fill="#1e1e1e" text-anchor="start" style="white-space: pre;" direction="ltr" dominant-baseline="alphabetic">w</text></g><g transform="translate(394.2366555994231 1060.4526350625295) rotate(0 4.495994567871094 10)"><text x="0" y="14.016" font-family="Virgil, Segoe UI Emoji" font-size="16px" fill="#1e1e1e" text-anchor="start" style="white-space: pre;" direction="ltr" dominant-baseline="alphabetic">x</text></g><g transform="translate(479.82396277368844 1014.4146151009212) rotate(0 5.1199951171875 10)"><text x="0" y="14.016" font-family="Virgil, Segoe UI Emoji" font-size="16px" fill="#1971c2" text-anchor="start" style="white-space: pre;" direction="ltr" dominant-baseline="alphabetic">4</text></g><g transform="translate(479.84507040527296 1037.317672693058) rotate(0 5.6959991455078125 10)"><text x="0" y="14.016" font-family="Virgil, Segoe UI Emoji" font-size="16px" fill="#1971c2" text-anchor="start" style="white-space: pre;" direction="ltr" dominant-baseline="alphabetic">2</text></g><g transform="translate(484.41016912572377 1062.509076162038) rotate(0 2.167999267578125 10)"><text x="0" y="14.016" font-family="Virgil, Segoe UI Emoji" font-size="16px" fill="#1971c2" text-anchor="start" style="white-space: pre;" direction="ltr" dominant-baseline="alphabetic">1</text></g><g stroke-linecap="round"><g transform="translate(455.6607798544619 1109.5250159531915) rotate(0 -149.63541088345573 -14.85933063157131)"><path d="M-0.84 -0.73 C-50.94 -5.77, -250.64 -24.58, -300.19 -29.65 M0.92 1.5 C-48.86 -3.9, -248.12 -25.95, -297.99 -31.22" stroke="#1971c2" stroke-width="1" fill="none"></path></g><g transform="translate(455.6607798544619 1109.5250159531915) rotate(0 -149.63541088345573 -14.85933063157131)"><path d="M-298.94 -30.52 L-283.83 -36.78 L-284.67 -24.16 L-296.12 -32.48" stroke="none" stroke-width="0" fill="#1971c2" fill-rule="evenodd"></path><path d="M-297.99 -31.22 C-294.16 -33.96, -287.14 -32.99, -283.79 -36.05 M-297.99 -31.22 C-294.65 -32.91, -290.75 -33.84, -283.79 -36.05 M-283.79 -36.05 C-283.63 -32.1, -283.96 -28.15, -285.16 -23.45 M-283.79 -36.05 C-284.54 -32.9, -283.94 -30.71, -285.16 -23.45 M-285.16 -23.45 C-290.8 -25.23, -294.87 -29.09, -297.99 -31.22 M-285.16 -23.45 C-290.14 -26.27, -294.91 -28.84, -297.99 -31.22 M-297.99 -31.22 C-297.99 -31.22, -297.99 -31.22, -297.99 -31.22 M-297.99 -31.22 C-297.99 -31.22, -297.99 -31.22, -297.99 -31.22" stroke="#1971c2" stroke-width="1" fill="none"></path></g></g><mask></mask><g transform="translate(256.7001034770101 1104.3839132044202) rotate(4.492999090475791 55.119972229003906 10)"><text x="0" y="14.016" font-family="Virgil, Segoe UI Emoji" font-size="16px" fill="#1971c2" text-anchor="start" style="white-space: pre;" direction="ltr" dominant-baseline="alphabetic">rw = 4+2 = 6</text></g><g stroke-linecap="round"><g transform="translate(352.2204987957921 1009.1658899011678) rotate(0 83.72931071308403 0)"><path d="M0 0 C27.91 0, 139.55 0, 167.46 0 M0 0 C27.91 0, 139.55 0, 167.46 0" stroke="#1e1e1e" stroke-width="1" fill="none"></path></g></g><mask></mask><g stroke-linecap="round"><g transform="translate(455.6580754020333 985.354704916091) rotate(0 0 51.78728333307038)"><path d="M0 0 C0 17.26, 0 86.31, 0 103.57 M0 0 C0 17.26, 0 86.31, 0 103.57" stroke="#1e1e1e" stroke-width="1" fill="none"></path></g></g><mask></mask></svg>