<svg version="1.1" xmlns="http://www.w3.org/2000/svg" viewBox="0 0 173.51823864070957 696.5307951415973" width="173.51823864070957" height="696.5307951415973">
  <!-- svg-source:excalidraw -->
  
  <defs>
    <style class="style-fonts">
      @font-face {
        font-family: "Virgil";
        src: url("https://excalidraw.com/Virgil.woff2");
      }
      @font-face {
        font-family: "Cascadia";
        src: url("https://excalidraw.com/Cascadia.woff2");
      }
    </style>
  </defs>
  <rect x="0" y="0" width="173.51823864070957" height="696.5307951415973" fill="#ffffff"></rect><g stroke-linecap="round" transform="translate(82.62712494794027 16.631202176957373) rotate(0 40.289955916848385 41.88032852889644)"><path d="M0 0 C21.77 0, 43.53 0, 80.58 0 M0 0 C30.12 0, 60.24 0, 80.58 0 M80.58 0 C80.58 24.79, 80.58 49.58, 80.58 83.76 M80.58 0 C80.58 29.34, 80.58 58.68, 80.58 83.76 M80.58 83.76 C50.99 83.76, 21.39 83.76, 0 83.76 M80.58 83.76 C51.85 83.76, 23.12 83.76, 0 83.76 M0 83.76 C0 62.66, 0 41.56, 0 0 M0 83.76 C0 57.84, 0 31.92, 0 0" stroke="#000000" stroke-width="1" fill="none"></path></g><g stroke-linecap="round" transform="translate(82.67538692271182 100.43067164705303) rotate(0 40.289955916848385 41.88032852889644)"><path d="M0 0 C18.32 0, 36.64 0, 80.58 0 M0 0 C32.18 0, 64.35 0, 80.58 0 M80.58 0 C80.58 30.97, 80.58 61.94, 80.58 83.76 M80.58 0 C80.58 29.69, 80.58 59.38, 80.58 83.76 M80.58 83.76 C62.14 83.76, 43.69 83.76, 0 83.76 M80.58 83.76 C57.44 83.76, 34.3 83.76, 0 83.76 M0 83.76 C0 50.85, 0 17.93, 0 0 M0 83.76 C0 51.13, 0 18.51, 0 0" stroke="#000000" stroke-width="1" fill="none"></path></g><g stroke-linecap="round" transform="translate(82.72153661758011 184.10956740166418) rotate(0 40.289955916848385 41.88032852889643)"><path d="M0 0 C31.98 0, 63.97 0, 80.58 0 M0 0 C17.4 0, 34.8 0, 80.58 0 M80.58 0 C80.58 28.87, 80.58 57.74, 80.58 83.76 M80.58 0 C80.58 30.19, 80.58 60.38, 80.58 83.76 M80.58 83.76 C52.02 83.76, 23.45 83.76, 0 83.76 M80.58 83.76 C61.63 83.76, 42.68 83.76, 0 83.76 M0 83.76 C0 52.97, 0 22.19, 0 0 M0 83.76 C0 54.9, 0 26.04, 0 0" stroke="#000000" stroke-width="1" fill="none"></path></g><g stroke-linecap="round" transform="translate(82.76979859235189 267.9090368717599) rotate(0 40.289955916848385 41.88032852889643)"><path d="M0 0 C22.95 0, 45.9 0, 80.58 0 M0 0 C17.37 0, 34.75 0, 80.58 0 M80.58 0 C80.58 23.39, 80.58 46.78, 80.58 83.76 M80.58 0 C80.58 27.43, 80.58 54.86, 80.58 83.76 M80.58 83.76 C55.41 83.76, 30.24 83.76, 0 83.76 M80.58 83.76 C60.47 83.76, 40.36 83.76, 0 83.76 M0 83.76 C0 66.29, 0 48.82, 0 0 M0 83.76 C0 65.16, 0 46.56, 0 0" stroke="#000000" stroke-width="1" fill="none"></path></g><g stroke-linecap="round" transform="translate(82.7956531626013 351.49230338900213) rotate(0 40.28995591684844 41.880328528896456)"><path d="M0 0 C31.7 0, 63.41 0, 80.58 0 M0 0 C19.43 0, 38.87 0, 80.58 0 M80.58 0 C80.58 22.78, 80.58 45.57, 80.58 83.76 M80.58 0 C80.58 20.76, 80.58 41.51, 80.58 83.76 M80.58 83.76 C59.58 83.76, 38.58 83.76, 0 83.76 M80.58 83.76 C56.36 83.76, 32.13 83.76, 0 83.76 M0 83.76 C0 56.28, 0 28.8, 0 0 M0 83.76 C0 64.67, 0 45.59, 0 0" stroke="#000000" stroke-width="1" fill="none"></path></g><g stroke-linecap="round" transform="translate(82.84391513737262 435.2917728590978) rotate(0 40.28995591684844 41.880328528896456)"><path d="M0 0 C31.07 0, 62.15 0, 80.58 0 M80.58 0 C80.58 21.49, 80.58 42.99, 80.58 83.76 M80.58 83.76 C57.47 83.76, 34.35 83.76, 0 83.76 M0 83.76 C0 53.43, 0 23.1, 0 0" stroke="#000000" stroke-width="1.5" fill="none" stroke-dasharray="8 9"></path></g><g stroke-linecap="round" transform="translate(82.89006483224091 518.9706686137089) rotate(0 40.28995591684844 41.88032852889643)"><path d="M0 0 C24.69 0, 49.38 0, 80.58 0 M80.58 0 C80.58 33.13, 80.58 66.26, 80.58 83.76 M80.58 83.76 C57.3 83.76, 34.02 83.76, 0 83.76 M0 83.76 C0 65.28, 0 46.81, 0 0" stroke="#000000" stroke-width="1.5" fill="none" stroke-dasharray="8 9"></path></g><g stroke-linecap="round" transform="translate(82.93832680701269 602.7701380838045) rotate(0 40.28995591684844 41.88032852889643)"><path d="M0 0 C28.04 0, 56.07 0, 80.58 0 M80.58 0 C80.58 21.16, 80.58 42.32, 80.58 83.76 M80.58 83.76 C55.5 83.76, 30.42 83.76, 0 83.76 M0 83.76 C0 59.18, 0 34.6, 0 0" stroke="#000000" stroke-width="1.5" fill="none" stroke-dasharray="8 9"></path></g><g transform="translate(13.901114414700714 10) rotate(0 27.5 12.5)"><text x="0" y="18" font-family="Virgil, Segoe UI Emoji" font-size="20px" fill="#000000" text-anchor="start" style="white-space: pre;" direction="ltr">0x00</text></g><g transform="translate(11.740052201518779 91.22426905489058) rotate(0 27 12.5)"><text x="0" y="18" font-family="Virgil, Segoe UI Emoji" font-size="20px" fill="#000000" text-anchor="start" style="white-space: pre;" direction="ltr">0x04</text></g><g transform="translate(10 174.54697204067568) rotate(0 28 12.5)"><text x="0" y="18" font-family="Virgil, Segoe UI Emoji" font-size="20px" fill="#000000" text-anchor="start" style="white-space: pre;" direction="ltr">0x08</text></g><g transform="translate(13.305927971206756 263.28878267587265) rotate(0 27 12.5)"><text x="0" y="18" font-family="Virgil, Segoe UI Emoji" font-size="20px" fill="#000000" text-anchor="start" style="white-space: pre;" direction="ltr">0x0C</text></g><g transform="translate(18.61164369669757 337.87395093649195) rotate(0 23 12.5)"><text x="0" y="18" font-family="Virgil, Segoe UI Emoji" font-size="20px" fill="#000000" text-anchor="start" style="white-space: pre;" direction="ltr">0x10</text></g><g transform="translate(18.653409196987468 422.2041259989095) rotate(0 22.5 12.5)"><text x="0" y="18" font-family="Virgil, Segoe UI Emoji" font-size="20px" fill="#000000" text-anchor="start" style="white-space: pre;" direction="ltr">0x14</text></g><g stroke-linecap="round" transform="translate(42.050107160388734 514.0319015082476) rotate(0 4.996214017121247 4.996214017121247)"><path d="M9.99 5 C9.99 5.29, 9.97 5.58, 9.92 5.86 C9.87 6.15, 9.79 6.43, 9.69 6.71 C9.59 6.98, 9.47 7.24, 9.32 7.49 C9.18 7.74, 9.01 7.99, 8.82 8.21 C8.64 8.43, 8.43 8.64, 8.21 8.82 C7.99 9.01, 7.74 9.18, 7.49 9.32 C7.24 9.47, 6.98 9.59, 6.71 9.69 C6.43 9.79, 6.15 9.87, 5.86 9.92 C5.58 9.97, 5.29 9.99, 5 9.99 C4.71 9.99, 4.41 9.97, 4.13 9.92 C3.84 9.87, 3.56 9.79, 3.29 9.69 C3.02 9.59, 2.75 9.47, 2.5 9.32 C2.25 9.18, 2.01 9.01, 1.78 8.82 C1.56 8.64, 1.35 8.43, 1.17 8.21 C0.98 7.99, 0.81 7.74, 0.67 7.49 C0.52 7.24, 0.4 6.98, 0.3 6.71 C0.2 6.43, 0.13 6.15, 0.08 5.86 C0.03 5.58, 0 5.29, 0 5 C0 4.71, 0.03 4.41, 0.08 4.13 C0.13 3.84, 0.2 3.56, 0.3 3.29 C0.4 3.02, 0.52 2.75, 0.67 2.5 C0.81 2.25, 0.98 2.01, 1.17 1.78 C1.35 1.56, 1.56 1.35, 1.78 1.17 C2.01 0.98, 2.25 0.81, 2.5 0.67 C2.75 0.52, 3.02 0.4, 3.29 0.3 C3.56 0.2, 3.84 0.13, 4.13 0.08 C4.41 0.03, 4.71 0, 5 0 C5.29 0, 5.58 0.03, 5.86 0.08 C6.15 0.13, 6.43 0.2, 6.71 0.3 C6.98 0.4, 7.24 0.52, 7.49 0.67 C7.74 0.81, 7.99 0.98, 8.21 1.17 C8.43 1.35, 8.64 1.56, 8.82 1.78 C9.01 2.01, 9.18 2.25, 9.32 2.5 C9.47 2.75, 9.59 3.02, 9.69 3.29 C9.79 3.56, 9.87 3.84, 9.92 4.13 C9.97 4.41, 9.98 4.85, 9.99 5 C10.01 5.14, 10.01 4.85, 9.99 5" stroke="none" stroke-width="0" fill="#868e96"></path><path d="M9.99 5 C9.99 5.29, 9.97 5.58, 9.92 5.86 C9.87 6.15, 9.79 6.43, 9.69 6.71 C9.59 6.98, 9.47 7.24, 9.32 7.49 C9.18 7.74, 9.01 7.99, 8.82 8.21 C8.64 8.43, 8.43 8.64, 8.21 8.82 C7.99 9.01, 7.74 9.18, 7.49 9.32 C7.24 9.47, 6.98 9.59, 6.71 9.69 C6.43 9.79, 6.15 9.87, 5.86 9.92 C5.58 9.97, 5.29 9.99, 5 9.99 C4.71 9.99, 4.41 9.97, 4.13 9.92 C3.84 9.87, 3.56 9.79, 3.29 9.69 C3.02 9.59, 2.75 9.47, 2.5 9.32 C2.25 9.18, 2.01 9.01, 1.78 8.82 C1.56 8.64, 1.35 8.43, 1.17 8.21 C0.98 7.99, 0.81 7.74, 0.67 7.49 C0.52 7.24, 0.4 6.98, 0.3 6.71 C0.2 6.43, 0.13 6.15, 0.08 5.86 C0.03 5.58, 0 5.29, 0 5 C0 4.71, 0.03 4.41, 0.08 4.13 C0.13 3.84, 0.2 3.56, 0.3 3.29 C0.4 3.02, 0.52 2.75, 0.67 2.5 C0.81 2.25, 0.98 2.01, 1.17 1.78 C1.35 1.56, 1.56 1.35, 1.78 1.17 C2.01 0.98, 2.25 0.81, 2.5 0.67 C2.75 0.52, 3.02 0.4, 3.29 0.3 C3.56 0.2, 3.84 0.13, 4.13 0.08 C4.41 0.03, 4.71 0, 5 0 C5.29 0, 5.58 0.03, 5.86 0.08 C6.15 0.13, 6.43 0.2, 6.71 0.3 C6.98 0.4, 7.24 0.52, 7.49 0.67 C7.74 0.81, 7.99 0.98, 8.21 1.17 C8.43 1.35, 8.64 1.56, 8.82 1.78 C9.01 2.01, 9.18 2.25, 9.32 2.5 C9.47 2.75, 9.59 3.02, 9.69 3.29 C9.79 3.56, 9.87 3.84, 9.92 4.13 C9.97 4.41, 9.98 4.85, 9.99 5 C10.01 5.14, 10.01 4.85, 9.99 5" stroke="#000000" stroke-width="1" fill="none"></path></g><g stroke-linecap="round" transform="translate(42.399386343723336 547.3753371220662) rotate(0 4.996214017121247 4.996214017121247)"><path d="M9.99 5 C9.99 5.29, 9.97 5.58, 9.92 5.86 C9.87 6.15, 9.79 6.43, 9.69 6.71 C9.59 6.98, 9.47 7.24, 9.32 7.49 C9.18 7.74, 9.01 7.99, 8.82 8.21 C8.64 8.43, 8.43 8.64, 8.21 8.82 C7.99 9.01, 7.74 9.18, 7.49 9.32 C7.24 9.47, 6.98 9.59, 6.71 9.69 C6.43 9.79, 6.15 9.87, 5.86 9.92 C5.58 9.97, 5.29 9.99, 5 9.99 C4.71 9.99, 4.41 9.97, 4.13 9.92 C3.84 9.87, 3.56 9.79, 3.29 9.69 C3.02 9.59, 2.75 9.47, 2.5 9.32 C2.25 9.18, 2.01 9.01, 1.78 8.82 C1.56 8.64, 1.35 8.43, 1.17 8.21 C0.98 7.99, 0.81 7.74, 0.67 7.49 C0.52 7.24, 0.4 6.98, 0.3 6.71 C0.2 6.43, 0.13 6.15, 0.08 5.86 C0.03 5.58, 0 5.29, 0 5 C0 4.71, 0.03 4.41, 0.08 4.13 C0.13 3.84, 0.2 3.56, 0.3 3.29 C0.4 3.02, 0.52 2.75, 0.67 2.5 C0.81 2.25, 0.98 2.01, 1.17 1.78 C1.35 1.56, 1.56 1.35, 1.78 1.17 C2.01 0.98, 2.25 0.81, 2.5 0.67 C2.75 0.52, 3.02 0.4, 3.29 0.3 C3.56 0.2, 3.84 0.13, 4.13 0.08 C4.41 0.03, 4.71 0, 5 0 C5.29 0, 5.58 0.03, 5.86 0.08 C6.15 0.13, 6.43 0.2, 6.71 0.3 C6.98 0.4, 7.24 0.52, 7.49 0.67 C7.74 0.81, 7.99 0.98, 8.21 1.17 C8.43 1.35, 8.64 1.56, 8.82 1.78 C9.01 2.01, 9.18 2.25, 9.32 2.5 C9.47 2.75, 9.59 3.02, 9.69 3.29 C9.79 3.56, 9.87 3.84, 9.92 4.13 C9.97 4.41, 9.98 4.85, 9.99 5 C10.01 5.14, 10.01 4.85, 9.99 5" stroke="none" stroke-width="0" fill="#868e96"></path><path d="M9.99 5 C9.99 5.29, 9.97 5.58, 9.92 5.86 C9.87 6.15, 9.79 6.43, 9.69 6.71 C9.59 6.98, 9.47 7.24, 9.32 7.49 C9.18 7.74, 9.01 7.99, 8.82 8.21 C8.64 8.43, 8.43 8.64, 8.21 8.82 C7.99 9.01, 7.74 9.18, 7.49 9.32 C7.24 9.47, 6.98 9.59, 6.71 9.69 C6.43 9.79, 6.15 9.87, 5.86 9.92 C5.58 9.97, 5.29 9.99, 5 9.99 C4.71 9.99, 4.41 9.97, 4.13 9.92 C3.84 9.87, 3.56 9.79, 3.29 9.69 C3.02 9.59, 2.75 9.47, 2.5 9.32 C2.25 9.18, 2.01 9.01, 1.78 8.82 C1.56 8.64, 1.35 8.43, 1.17 8.21 C0.98 7.99, 0.81 7.74, 0.67 7.49 C0.52 7.24, 0.4 6.98, 0.3 6.71 C0.2 6.43, 0.13 6.15, 0.08 5.86 C0.03 5.58, 0 5.29, 0 5 C0 4.71, 0.03 4.41, 0.08 4.13 C0.13 3.84, 0.2 3.56, 0.3 3.29 C0.4 3.02, 0.52 2.75, 0.67 2.5 C0.81 2.25, 0.98 2.01, 1.17 1.78 C1.35 1.56, 1.56 1.35, 1.78 1.17 C2.01 0.98, 2.25 0.81, 2.5 0.67 C2.75 0.52, 3.02 0.4, 3.29 0.3 C3.56 0.2, 3.84 0.13, 4.13 0.08 C4.41 0.03, 4.71 0, 5 0 C5.29 0, 5.58 0.03, 5.86 0.08 C6.15 0.13, 6.43 0.2, 6.71 0.3 C6.98 0.4, 7.24 0.52, 7.49 0.67 C7.74 0.81, 7.99 0.98, 8.21 1.17 C8.43 1.35, 8.64 1.56, 8.82 1.78 C9.01 2.01, 9.18 2.25, 9.32 2.5 C9.47 2.75, 9.59 3.02, 9.69 3.29 C9.79 3.56, 9.87 3.84, 9.92 4.13 C9.97 4.41, 9.98 4.85, 9.99 5 C10.01 5.14, 10.01 4.85, 9.99 5" stroke="#000000" stroke-width="1" fill="none"></path></g><g stroke-linecap="round" transform="translate(42.4095194939913 581.5313647175809) rotate(0 4.996214017121247 4.996214017121247)"><path d="M9.99 5 C9.99 5.29, 9.97 5.58, 9.92 5.86 C9.87 6.15, 9.79 6.43, 9.69 6.71 C9.59 6.98, 9.47 7.24, 9.32 7.49 C9.18 7.74, 9.01 7.99, 8.82 8.21 C8.64 8.43, 8.43 8.64, 8.21 8.82 C7.99 9.01, 7.74 9.18, 7.49 9.32 C7.24 9.47, 6.98 9.59, 6.71 9.69 C6.43 9.79, 6.15 9.87, 5.86 9.92 C5.58 9.97, 5.29 9.99, 5 9.99 C4.71 9.99, 4.41 9.97, 4.13 9.92 C3.84 9.87, 3.56 9.79, 3.29 9.69 C3.02 9.59, 2.75 9.47, 2.5 9.32 C2.25 9.18, 2.01 9.01, 1.78 8.82 C1.56 8.64, 1.35 8.43, 1.17 8.21 C0.98 7.99, 0.81 7.74, 0.67 7.49 C0.52 7.24, 0.4 6.98, 0.3 6.71 C0.2 6.43, 0.13 6.15, 0.08 5.86 C0.03 5.58, 0 5.29, 0 5 C0 4.71, 0.03 4.41, 0.08 4.13 C0.13 3.84, 0.2 3.56, 0.3 3.29 C0.4 3.02, 0.52 2.75, 0.67 2.5 C0.81 2.25, 0.98 2.01, 1.17 1.78 C1.35 1.56, 1.56 1.35, 1.78 1.17 C2.01 0.98, 2.25 0.81, 2.5 0.67 C2.75 0.52, 3.02 0.4, 3.29 0.3 C3.56 0.2, 3.84 0.13, 4.13 0.08 C4.41 0.03, 4.71 0, 5 0 C5.29 0, 5.58 0.03, 5.86 0.08 C6.15 0.13, 6.43 0.2, 6.71 0.3 C6.98 0.4, 7.24 0.52, 7.49 0.67 C7.74 0.81, 7.99 0.98, 8.21 1.17 C8.43 1.35, 8.64 1.56, 8.82 1.78 C9.01 2.01, 9.18 2.25, 9.32 2.5 C9.47 2.75, 9.59 3.02, 9.69 3.29 C9.79 3.56, 9.87 3.84, 9.92 4.13 C9.97 4.41, 9.98 4.85, 9.99 5 C10.01 5.14, 10.01 4.85, 9.99 5" stroke="none" stroke-width="0" fill="#868e96"></path><path d="M9.99 5 C9.99 5.29, 9.97 5.58, 9.92 5.86 C9.87 6.15, 9.79 6.43, 9.69 6.71 C9.59 6.98, 9.47 7.24, 9.32 7.49 C9.18 7.74, 9.01 7.99, 8.82 8.21 C8.64 8.43, 8.43 8.64, 8.21 8.82 C7.99 9.01, 7.74 9.18, 7.49 9.32 C7.24 9.47, 6.98 9.59, 6.71 9.69 C6.43 9.79, 6.15 9.87, 5.86 9.92 C5.58 9.97, 5.29 9.99, 5 9.99 C4.71 9.99, 4.41 9.97, 4.13 9.92 C3.84 9.87, 3.56 9.79, 3.29 9.69 C3.02 9.59, 2.75 9.47, 2.5 9.32 C2.25 9.18, 2.01 9.01, 1.78 8.82 C1.56 8.64, 1.35 8.43, 1.17 8.21 C0.98 7.99, 0.81 7.74, 0.67 7.49 C0.52 7.24, 0.4 6.98, 0.3 6.71 C0.2 6.43, 0.13 6.15, 0.08 5.86 C0.03 5.58, 0 5.29, 0 5 C0 4.71, 0.03 4.41, 0.08 4.13 C0.13 3.84, 0.2 3.56, 0.3 3.29 C0.4 3.02, 0.52 2.75, 0.67 2.5 C0.81 2.25, 0.98 2.01, 1.17 1.78 C1.35 1.56, 1.56 1.35, 1.78 1.17 C2.01 0.98, 2.25 0.81, 2.5 0.67 C2.75 0.52, 3.02 0.4, 3.29 0.3 C3.56 0.2, 3.84 0.13, 4.13 0.08 C4.41 0.03, 4.71 0, 5 0 C5.29 0, 5.58 0.03, 5.86 0.08 C6.15 0.13, 6.43 0.2, 6.71 0.3 C6.98 0.4, 7.24 0.52, 7.49 0.67 C7.74 0.81, 7.99 0.98, 8.21 1.17 C8.43 1.35, 8.64 1.56, 8.82 1.78 C9.01 2.01, 9.18 2.25, 9.32 2.5 C9.47 2.75, 9.59 3.02, 9.69 3.29 C9.79 3.56, 9.87 3.84, 9.92 4.13 C9.97 4.41, 9.98 4.85, 9.99 5 C10.01 5.14, 10.01 4.85, 9.99 5" stroke="#000000" stroke-width="1" fill="none"></path></g></svg>